G04 Layer: TopSolderMaskLayer*
G04 EasyEDA v6.3.53, 2020-06-18T19:39:47--4:00*
G04 e7e3e9cc35ab4c03949e4311758ff5c7,7c2c677999ea4ec384e77b3a21fa14ba,10*
G04 Gerber Generator version 0.2*
G04 Scale: 100 percent, Rotated: No, Reflected: No *
G04 Dimensions in millimeters *
G04 leading zeros omitted , absolute positions ,3 integer and 3 decimal *
%FSLAX33Y33*%
%MOMM*%
G90*
G71D02*

%ADD21C,1.711198*%
%ADD22C,1.727200*%
%ADD23C,2.082800*%
%ADD25C,2.108200*%

%LPD*%
G54D21*
G01X9406Y22225D02*
G01X10913Y22225D01*
G01X9406Y24765D02*
G01X10913Y24765D01*
G01X9406Y27305D02*
G01X10913Y27305D01*
G54D22*
G01X10287Y70485D03*
G01X10287Y67945D03*
G01X10287Y65405D03*
G01X10287Y62865D03*
G01X10287Y60325D03*
G01X10287Y57785D03*
G01X10287Y55245D03*
G01X10287Y52705D03*
G01X10287Y50165D03*
G01X10287Y47625D03*
G01X10287Y45085D03*
G01X10287Y42545D03*
G01X10160Y27305D03*
G01X10160Y24765D03*
G01X10160Y22225D03*
G01X4953Y14478D03*
G01X4953Y6985D03*
G01X17780Y18415D03*
G01X17780Y20955D03*
G01X17780Y23495D03*
G01X17780Y26035D03*
G01X17780Y28575D03*
G01X17780Y31115D03*
G01X27940Y28575D03*
G01X27940Y26035D03*
G01X27940Y23495D03*
G01X27940Y20955D03*
G01X27940Y18415D03*
G01X28067Y42545D03*
G01X28067Y45085D03*
G01X28067Y47625D03*
G01X28067Y50165D03*
G01X28067Y52705D03*
G01X28067Y55245D03*
G01X28067Y57785D03*
G01X28067Y60325D03*
G01X28067Y62865D03*
G01X28067Y65405D03*
G01X28067Y67945D03*
G01X28067Y70485D03*
G01X27940Y31115D03*
G54D23*
G01X27940Y18415D03*
G01X27940Y20955D03*
G01X27940Y23495D03*
G01X27940Y26035D03*
G01X27940Y28575D03*
G01X27940Y31115D03*
G01X17780Y31115D03*
G01X17780Y28575D03*
G01X17780Y26035D03*
G01X17780Y23495D03*
G01X17780Y20955D03*
G01X17780Y18415D03*
G36*
G01X28272Y64475D02*
G01X28267Y66329D01*
G01X30401Y66334D01*
G01X30406Y64480D01*
G01X28272Y64475D01*
G37*
G36*
G01X28272Y61935D02*
G01X28267Y63789D01*
G01X30401Y63794D01*
G01X30406Y61940D01*
G01X28272Y61935D01*
G37*
G36*
G01X28272Y59395D02*
G01X28267Y61249D01*
G01X30401Y61254D01*
G01X30406Y59400D01*
G01X28272Y59395D01*
G37*
G36*
G01X28272Y56855D02*
G01X28267Y58709D01*
G01X30401Y58714D01*
G01X30406Y56860D01*
G01X28272Y56855D01*
G37*
G36*
G01X28272Y54315D02*
G01X28267Y56169D01*
G01X30401Y56174D01*
G01X30406Y54320D01*
G01X28272Y54315D01*
G37*
G36*
G01X28272Y51775D02*
G01X28267Y53629D01*
G01X30401Y53634D01*
G01X30406Y51780D01*
G01X28272Y51775D01*
G37*
G36*
G01X28272Y49235D02*
G01X28267Y51089D01*
G01X30401Y51094D01*
G01X30406Y49240D01*
G01X28272Y49235D01*
G37*
G36*
G01X28272Y46695D02*
G01X28267Y48549D01*
G01X30401Y48554D01*
G01X30406Y46700D01*
G01X28272Y46695D01*
G37*
G36*
G01X28272Y44155D02*
G01X28267Y46009D01*
G01X30401Y46014D01*
G01X30406Y44160D01*
G01X28272Y44155D01*
G37*
G36*
G01X28272Y41615D02*
G01X28267Y43469D01*
G01X30401Y43474D01*
G01X30406Y41620D01*
G01X28272Y41615D01*
G37*
G36*
G01X7952Y59395D02*
G01X7947Y61249D01*
G01X10081Y61254D01*
G01X10086Y59400D01*
G01X7952Y59395D01*
G37*
G36*
G01X7952Y69555D02*
G01X7947Y71409D01*
G01X10081Y71414D01*
G01X10086Y69560D01*
G01X7952Y69555D01*
G37*
G36*
G01X7952Y64475D02*
G01X7947Y66329D01*
G01X10081Y66334D01*
G01X10086Y64480D01*
G01X7952Y64475D01*
G37*
G36*
G01X7952Y61935D02*
G01X7947Y63789D01*
G01X10081Y63794D01*
G01X10086Y61940D01*
G01X7952Y61935D01*
G37*
G36*
G01X7952Y67015D02*
G01X7947Y68869D01*
G01X10081Y68874D01*
G01X10086Y67020D01*
G01X7952Y67015D01*
G37*
G36*
G01X7952Y56855D02*
G01X7947Y58709D01*
G01X10081Y58714D01*
G01X10086Y56860D01*
G01X7952Y56855D01*
G37*
G36*
G01X7952Y54315D02*
G01X7947Y56169D01*
G01X10081Y56174D01*
G01X10086Y54320D01*
G01X7952Y54315D01*
G37*
G36*
G01X7952Y51775D02*
G01X7947Y53629D01*
G01X10081Y53634D01*
G01X10086Y51780D01*
G01X7952Y51775D01*
G37*
G36*
G01X7952Y49235D02*
G01X7947Y51089D01*
G01X10081Y51094D01*
G01X10086Y49240D01*
G01X7952Y49235D01*
G37*
G36*
G01X7952Y46695D02*
G01X7947Y48549D01*
G01X10081Y48554D01*
G01X10086Y46700D01*
G01X7952Y46695D01*
G37*
G36*
G01X7952Y44155D02*
G01X7947Y46009D01*
G01X10081Y46014D01*
G01X10086Y44160D01*
G01X7952Y44155D01*
G37*
G36*
G01X7952Y41615D02*
G01X7947Y43469D01*
G01X10081Y43474D01*
G01X10086Y41620D01*
G01X7952Y41615D01*
G37*
G36*
G01X28272Y67015D02*
G01X28267Y68869D01*
G01X30401Y68874D01*
G01X30406Y67020D01*
G01X28272Y67015D01*
G37*
G36*
G01X28272Y69555D02*
G01X28267Y71409D01*
G01X30401Y71414D01*
G01X30406Y69560D01*
G01X28272Y69555D01*
G37*
G54D25*
G01X28067Y70485D03*
G01X28067Y67945D03*
G01X28067Y65405D03*
G01X28067Y62865D03*
G01X28067Y60325D03*
G01X28067Y57785D03*
G01X28067Y55245D03*
G01X28067Y52705D03*
G01X28067Y50165D03*
G01X28067Y47625D03*
G01X28067Y45085D03*
G01X28067Y42545D03*
G01X10287Y42545D03*
G01X10287Y45085D03*
G01X10287Y47625D03*
G01X10287Y50165D03*
G01X10287Y52705D03*
G01X10287Y55245D03*
G01X10287Y57785D03*
G01X10287Y60325D03*
G01X10287Y62865D03*
G01X10287Y65405D03*
G01X10287Y67945D03*
G01X10287Y70485D03*
M00*
M02*
