G04 Layer: TopSilkLayer*
G04 EasyEDA v6.3.53, 2020-06-18T19:39:47--4:00*
G04 e7e3e9cc35ab4c03949e4311758ff5c7,7c2c677999ea4ec384e77b3a21fa14ba,10*
G04 Gerber Generator version 0.2*
G04 Scale: 100 percent, Rotated: No, Reflected: No *
G04 Dimensions in millimeters *
G04 leading zeros omitted , absolute positions ,3 integer and 3 decimal *
%FSLAX33Y33*%
%MOMM*%
G90*
G71D02*

%ADD10C,0.254000*%
%ADD16C,0.127000*%
%ADD17C,0.203200*%
%ADD18C,0.151994*%
%ADD19C,0.152400*%
%ADD20C,0.144780*%

%LPD*%

%LPD*%
G36*
G01X32696Y14359D02*
G01X32583Y14359D01*
G01X32529Y14358D01*
G01X32478Y14356D01*
G01X32430Y14354D01*
G01X32385Y14351D01*
G01X32334Y14346D01*
G01X32280Y14341D01*
G01X32224Y14335D01*
G01X32166Y14329D01*
G01X32105Y14321D01*
G01X32042Y14313D01*
G01X31978Y14305D01*
G01X31913Y14296D01*
G01X31846Y14286D01*
G01X31708Y14266D01*
G01X31569Y14243D01*
G01X31499Y14232D01*
G01X31359Y14207D01*
G01X31289Y14195D01*
G01X31221Y14182D01*
G01X31153Y14170D01*
G01X31086Y14156D01*
G01X31020Y14144D01*
G01X30956Y14131D01*
G01X30894Y14118D01*
G01X30833Y14105D01*
G01X30775Y14092D01*
G01X30718Y14079D01*
G01X30665Y14067D01*
G01X30614Y14054D01*
G01X30566Y14042D01*
G01X30522Y14030D01*
G01X30481Y14018D01*
G01X30443Y14007D01*
G01X30380Y13987D01*
G01X30317Y13966D01*
G01X30254Y13944D01*
G01X30192Y13922D01*
G01X30131Y13898D01*
G01X30069Y13875D01*
G01X30008Y13850D01*
G01X29888Y13798D01*
G01X29828Y13771D01*
G01X29769Y13744D01*
G01X29711Y13716D01*
G01X29653Y13687D01*
G01X29596Y13658D01*
G01X29539Y13627D01*
G01X29482Y13597D01*
G01X29317Y13501D01*
G01X29263Y13467D01*
G01X29157Y13399D01*
G01X29105Y13364D01*
G01X29003Y13292D01*
G01X28952Y13255D01*
G01X28854Y13181D01*
G01X28758Y13103D01*
G01X28712Y13064D01*
G01X28666Y13024D01*
G01X28621Y12984D01*
G01X28576Y12943D01*
G01X28532Y12902D01*
G01X28489Y12860D01*
G01X28447Y12818D01*
G01X28405Y12775D01*
G01X28365Y12733D01*
G01X28325Y12689D01*
G01X28247Y12601D01*
G01X28210Y12556D01*
G01X28138Y12466D01*
G01X28103Y12420D01*
G01X28069Y12374D01*
G01X28036Y12327D01*
G01X28004Y12280D01*
G01X27973Y12233D01*
G01X27942Y12185D01*
G01X27913Y12138D01*
G01X27884Y12090D01*
G01X27856Y12041D01*
G01X27830Y11992D01*
G01X27804Y11944D01*
G01X27779Y11894D01*
G01X27756Y11845D01*
G01X27733Y11795D01*
G01X27711Y11745D01*
G01X27691Y11695D01*
G01X27671Y11644D01*
G01X27652Y11594D01*
G01X27635Y11543D01*
G01X27617Y11487D01*
G01X27600Y11434D01*
G01X27585Y11382D01*
G01X27573Y11332D01*
G01X27561Y11283D01*
G01X27551Y11234D01*
G01X27542Y11185D01*
G01X27535Y11134D01*
G01X27529Y11082D01*
G01X27524Y11027D01*
G01X27520Y10969D01*
G01X27517Y10907D01*
G01X27515Y10842D01*
G01X27513Y10771D01*
G01X27513Y10612D01*
G01X27514Y10535D01*
G01X27516Y10460D01*
G01X27519Y10388D01*
G01X27523Y10318D01*
G01X27529Y10250D01*
G01X27535Y10183D01*
G01X27543Y10119D01*
G01X27552Y10056D01*
G01X27563Y9994D01*
G01X27575Y9934D01*
G01X27589Y9875D01*
G01X27604Y9816D01*
G01X27621Y9757D01*
G01X27639Y9699D01*
G01X27660Y9642D01*
G01X27681Y9584D01*
G01X27705Y9527D01*
G01X27731Y9468D01*
G01X27759Y9410D01*
G01X27788Y9350D01*
G01X27820Y9290D01*
G01X27853Y9229D01*
G01X27889Y9166D01*
G01X27926Y9102D01*
G01X28104Y8808D01*
G01X28104Y6880D01*
G01X28105Y6784D01*
G01X28105Y6691D01*
G01X28106Y6600D01*
G01X28106Y6511D01*
G01X28107Y6425D01*
G01X28108Y6340D01*
G01X28109Y6259D01*
G01X28110Y6179D01*
G01X28111Y6102D01*
G01X28112Y6028D01*
G01X28114Y5956D01*
G01X28115Y5887D01*
G01X28117Y5821D01*
G01X28119Y5757D01*
G01X28121Y5696D01*
G01X28122Y5638D01*
G01X28124Y5583D01*
G01X28127Y5531D01*
G01X28129Y5481D01*
G01X28132Y5435D01*
G01X28134Y5392D01*
G01X28136Y5352D01*
G01X28139Y5316D01*
G01X28142Y5282D01*
G01X28144Y5252D01*
G01X28147Y5225D01*
G01X28150Y5201D01*
G01X28153Y5181D01*
G01X28156Y5164D01*
G01X28159Y5151D01*
G01X28175Y5107D01*
G01X28197Y5058D01*
G01X28226Y5004D01*
G01X28260Y4948D01*
G01X28297Y4891D01*
G01X28338Y4835D01*
G01X28380Y4782D01*
G01X28424Y4734D01*
G01X28439Y4717D01*
G01X28469Y4685D01*
G01X28497Y4655D01*
G01X28525Y4627D01*
G01X28553Y4601D01*
G01X28581Y4577D01*
G01X28611Y4554D01*
G01X28642Y4533D01*
G01X28659Y4523D01*
G01X28677Y4514D01*
G01X28695Y4504D01*
G01X28714Y4496D01*
G01X28735Y4487D01*
G01X28756Y4479D01*
G01X28778Y4471D01*
G01X28802Y4464D01*
G01X28827Y4457D01*
G01X28853Y4450D01*
G01X28881Y4443D01*
G01X28911Y4437D01*
G01X28942Y4432D01*
G01X28975Y4426D01*
G01X29010Y4421D01*
G01X29046Y4416D01*
G01X29085Y4411D01*
G01X29126Y4407D01*
G01X29169Y4403D01*
G01X29214Y4399D01*
G01X29261Y4395D01*
G01X29311Y4392D01*
G01X29363Y4389D01*
G01X29418Y4386D01*
G01X29476Y4383D01*
G01X29536Y4380D01*
G01X29599Y4378D01*
G01X29665Y4375D01*
G01X29734Y4373D01*
G01X29806Y4372D01*
G01X29881Y4370D01*
G01X29960Y4368D01*
G01X30041Y4367D01*
G01X30126Y4366D01*
G01X30215Y4365D01*
G01X30307Y4364D01*
G01X30403Y4363D01*
G01X30502Y4362D01*
G01X30606Y4362D01*
G01X30713Y4361D01*
G01X30824Y4361D01*
G01X30940Y4360D01*
G01X31183Y4360D01*
G01X31311Y4359D01*
G01X32964Y4359D01*
G01X33075Y4360D01*
G01X33395Y4360D01*
G01X33498Y4361D01*
G01X33698Y4361D01*
G01X33795Y4362D01*
G01X33889Y4362D01*
G01X33982Y4363D01*
G01X34073Y4363D01*
G01X34161Y4364D01*
G01X34248Y4364D01*
G01X34333Y4365D01*
G01X34415Y4365D01*
G01X34496Y4366D01*
G01X34574Y4367D01*
G01X34651Y4367D01*
G01X34726Y4368D01*
G01X34799Y4369D01*
G01X34869Y4370D01*
G01X34938Y4371D01*
G01X35004Y4372D01*
G01X35069Y4373D01*
G01X35131Y4374D01*
G01X35192Y4375D01*
G01X35251Y4376D01*
G01X35307Y4377D01*
G01X35362Y4378D01*
G01X35414Y4379D01*
G01X35465Y4380D01*
G01X35514Y4382D01*
G01X35561Y4383D01*
G01X35605Y4385D01*
G01X35647Y4386D01*
G01X35688Y4387D01*
G01X35727Y4389D01*
G01X35764Y4390D01*
G01X35798Y4392D01*
G01X35831Y4393D01*
G01X35862Y4395D01*
G01X35890Y4396D01*
G01X35917Y4398D01*
G01X35942Y4399D01*
G01X35965Y4401D01*
G01X35986Y4403D01*
G01X36005Y4405D01*
G01X36021Y4406D01*
G01X36036Y4408D01*
G01X36049Y4410D01*
G01X36060Y4412D01*
G01X36069Y4414D01*
G01X36125Y4430D01*
G01X36181Y4450D01*
G01X36237Y4473D01*
G01X36291Y4500D01*
G01X36343Y4530D01*
G01X36395Y4563D01*
G01X36445Y4599D01*
G01X36493Y4639D01*
G01X36540Y4681D01*
G01X36585Y4725D01*
G01X36627Y4772D01*
G01X36667Y4821D01*
G01X36705Y4873D01*
G01X36740Y4927D01*
G01X36772Y4982D01*
G01X36801Y5039D01*
G01X36812Y5062D01*
G01X36822Y5085D01*
G01X36832Y5106D01*
G01X36841Y5127D01*
G01X36849Y5149D01*
G01X36856Y5170D01*
G01X36864Y5193D01*
G01X36871Y5217D01*
G01X36877Y5242D01*
G01X36882Y5269D01*
G01X36887Y5298D01*
G01X36892Y5330D01*
G01X36897Y5365D01*
G01X36900Y5404D01*
G01X36904Y5445D01*
G01X36907Y5491D01*
G01X36910Y5542D01*
G01X36912Y5597D01*
G01X36914Y5658D01*
G01X36916Y5724D01*
G01X36917Y5795D01*
G01X36918Y5874D01*
G01X36919Y5958D01*
G01X36920Y6050D01*
G01X36921Y6148D01*
G01X36922Y6255D01*
G01X36922Y6625D01*
G01X36923Y6766D01*
G01X36923Y8858D01*
G01X37100Y9153D01*
G01X37138Y9217D01*
G01X37173Y9279D01*
G01X37206Y9340D01*
G01X37238Y9400D01*
G01X37267Y9458D01*
G01X37294Y9517D01*
G01X37320Y9575D01*
G01X37344Y9633D01*
G01X37365Y9690D01*
G01X37386Y9748D01*
G01X37404Y9806D01*
G01X37421Y9864D01*
G01X37436Y9923D01*
G01X37450Y9983D01*
G01X37462Y10044D01*
G01X37473Y10106D01*
G01X37482Y10169D01*
G01X37490Y10233D01*
G01X37497Y10300D01*
G01X37502Y10368D01*
G01X37507Y10438D01*
G01X37510Y10511D01*
G01X37512Y10586D01*
G01X37513Y10663D01*
G01X37513Y10763D01*
G01X37512Y10855D01*
G01X37509Y10940D01*
G01X37506Y11019D01*
G01X37501Y11091D01*
G01X37494Y11159D01*
G01X37486Y11222D01*
G01X37477Y11282D01*
G01X37465Y11339D01*
G01X37452Y11393D01*
G01X37437Y11446D01*
G01X37420Y11499D01*
G01X37400Y11554D01*
G01X37358Y11664D01*
G01X37335Y11719D01*
G01X37312Y11772D01*
G01X37288Y11826D01*
G01X37237Y11932D01*
G01X37211Y11984D01*
G01X37155Y12088D01*
G01X37126Y12139D01*
G01X37096Y12189D01*
G01X37065Y12239D01*
G01X37033Y12289D01*
G01X37001Y12338D01*
G01X36968Y12387D01*
G01X36900Y12483D01*
G01X36864Y12530D01*
G01X36828Y12578D01*
G01X36791Y12624D01*
G01X36753Y12670D01*
G01X36715Y12715D01*
G01X36676Y12760D01*
G01X36635Y12804D01*
G01X36595Y12848D01*
G01X36554Y12891D01*
G01X36469Y12976D01*
G01X36425Y13018D01*
G01X36381Y13059D01*
G01X36291Y13139D01*
G01X36245Y13179D01*
G01X36198Y13218D01*
G01X36150Y13256D01*
G01X36103Y13294D01*
G01X36054Y13331D01*
G01X36004Y13368D01*
G01X35954Y13404D01*
G01X35852Y13474D01*
G01X35748Y13542D01*
G01X35695Y13575D01*
G01X35587Y13639D01*
G01X35477Y13701D01*
G01X35421Y13731D01*
G01X35307Y13789D01*
G01X35250Y13817D01*
G01X35191Y13844D01*
G01X35133Y13870D01*
G01X35073Y13896D01*
G01X35014Y13921D01*
G01X34953Y13946D01*
G01X34893Y13970D01*
G01X34832Y13993D01*
G01X34708Y14037D01*
G01X34582Y14079D01*
G01X34519Y14099D01*
G01X34454Y14117D01*
G01X34390Y14136D01*
G01X34260Y14170D01*
G01X34193Y14186D01*
G01X34127Y14201D01*
G01X33993Y14229D01*
G01X33926Y14242D01*
G01X33858Y14254D01*
G01X33799Y14264D01*
G01X33738Y14274D01*
G01X33675Y14283D01*
G01X33611Y14292D01*
G01X33546Y14300D01*
G01X33480Y14308D01*
G01X33346Y14322D01*
G01X33211Y14334D01*
G01X33144Y14339D01*
G01X33077Y14343D01*
G01X32945Y14351D01*
G01X32881Y14354D01*
G01X32818Y14356D01*
G01X32756Y14358D01*
G01X32696Y14359D01*
G37*

%LPC*%
G36*
G01X32165Y14016D02*
G01X32094Y14016D01*
G01X32023Y14015D01*
G01X31953Y14013D01*
G01X31884Y14011D01*
G01X31816Y14009D01*
G01X31748Y14005D01*
G01X31682Y14001D01*
G01X31617Y13996D01*
G01X31554Y13990D01*
G01X31492Y13984D01*
G01X31431Y13977D01*
G01X31372Y13970D01*
G01X31315Y13961D01*
G01X31260Y13952D01*
G01X31192Y13941D01*
G01X31124Y13927D01*
G01X31057Y13914D01*
G01X30991Y13900D01*
G01X30925Y13885D01*
G01X30793Y13853D01*
G01X30729Y13836D01*
G01X30601Y13800D01*
G01X30538Y13781D01*
G01X30475Y13761D01*
G01X30413Y13740D01*
G01X30351Y13720D01*
G01X30290Y13698D01*
G01X30230Y13675D01*
G01X30169Y13653D01*
G01X30051Y13605D01*
G01X29992Y13580D01*
G01X29934Y13554D01*
G01X29877Y13528D01*
G01X29821Y13502D01*
G01X29764Y13474D01*
G01X29654Y13418D01*
G01X29600Y13388D01*
G01X29546Y13359D01*
G01X29492Y13328D01*
G01X29440Y13298D01*
G01X29388Y13266D01*
G01X29337Y13234D01*
G01X29287Y13202D01*
G01X29237Y13169D01*
G01X29139Y13101D01*
G01X29091Y13066D01*
G01X29044Y13031D01*
G01X28952Y12959D01*
G01X28907Y12923D01*
G01X28862Y12885D01*
G01X28776Y12809D01*
G01X28692Y12731D01*
G01X28651Y12691D01*
G01X28611Y12651D01*
G01X28572Y12610D01*
G01X28534Y12569D01*
G01X28496Y12527D01*
G01X28459Y12485D01*
G01X28423Y12442D01*
G01X28353Y12356D01*
G01X28319Y12312D01*
G01X28286Y12268D01*
G01X28254Y12223D01*
G01X28223Y12178D01*
G01X28193Y12132D01*
G01X28135Y12040D01*
G01X28107Y11993D01*
G01X28080Y11946D01*
G01X28028Y11850D01*
G01X28004Y11802D01*
G01X27958Y11704D01*
G01X27936Y11654D01*
G01X27896Y11554D01*
G01X27877Y11504D01*
G01X27859Y11453D01*
G01X27842Y11402D01*
G01X27826Y11350D01*
G01X27813Y11304D01*
G01X27801Y11254D01*
G01X27790Y11200D01*
G01X27780Y11145D01*
G01X27772Y11087D01*
G01X27765Y11027D01*
G01X27759Y10965D01*
G01X27754Y10901D01*
G01X27746Y10771D01*
G01X27745Y10704D01*
G01X27744Y10638D01*
G01X27745Y10571D01*
G01X27746Y10505D01*
G01X27750Y10439D01*
G01X27754Y10374D01*
G01X27759Y10311D01*
G01X27765Y10248D01*
G01X27772Y10188D01*
G01X27780Y10131D01*
G01X27790Y10075D01*
G01X27801Y10022D01*
G01X27813Y9972D01*
G01X27826Y9925D01*
G01X27844Y9866D01*
G01X27865Y9806D01*
G01X27888Y9744D01*
G01X27913Y9680D01*
G01X27939Y9617D01*
G01X27967Y9553D01*
G01X27996Y9490D01*
G01X28025Y9428D01*
G01X28056Y9367D01*
G01X28086Y9309D01*
G01X28117Y9252D01*
G01X28148Y9198D01*
G01X28178Y9148D01*
G01X28208Y9102D01*
G01X28237Y9060D01*
G01X28265Y9023D01*
G01X28281Y9001D01*
G01X28288Y8990D01*
G01X28295Y8977D01*
G01X28302Y8963D01*
G01X28307Y8948D01*
G01X28313Y8931D01*
G01X28318Y8911D01*
G01X28323Y8890D01*
G01X28327Y8865D01*
G01X28331Y8838D01*
G01X28335Y8807D01*
G01X28339Y8773D01*
G01X28342Y8736D01*
G01X28344Y8693D01*
G01X28347Y8647D01*
G01X28349Y8596D01*
G01X28351Y8540D01*
G01X28353Y8479D01*
G01X28355Y8412D01*
G01X28356Y8340D01*
G01X28357Y8261D01*
G01X28358Y8176D01*
G01X28359Y8085D01*
G01X28360Y7986D01*
G01X28360Y7881D01*
G01X28361Y7767D01*
G01X28361Y7380D01*
G01X28362Y7233D01*
G01X28362Y5254D01*
G01X28490Y5039D01*
G01X28523Y4987D01*
G01X28560Y4939D01*
G01X28599Y4894D01*
G01X28642Y4851D01*
G01X28687Y4813D01*
G01X28736Y4778D01*
G01X28787Y4747D01*
G01X28841Y4718D01*
G01X28854Y4712D01*
G01X28878Y4702D01*
G01X28890Y4696D01*
G01X28903Y4691D01*
G01X28929Y4682D01*
G01X28943Y4677D01*
G01X28973Y4669D01*
G01X29007Y4661D01*
G01X29026Y4658D01*
G01X29046Y4654D01*
G01X29068Y4651D01*
G01X29092Y4648D01*
G01X29117Y4646D01*
G01X29144Y4643D01*
G01X29174Y4640D01*
G01X29205Y4638D01*
G01X29240Y4636D01*
G01X29277Y4633D01*
G01X29316Y4631D01*
G01X29358Y4629D01*
G01X29403Y4628D01*
G01X29451Y4626D01*
G01X29502Y4625D01*
G01X29556Y4623D01*
G01X29614Y4622D01*
G01X29676Y4621D01*
G01X29741Y4620D01*
G01X29810Y4619D01*
G01X29884Y4618D01*
G01X29961Y4617D01*
G01X30043Y4616D01*
G01X30128Y4616D01*
G01X30219Y4615D01*
G01X30314Y4615D01*
G01X30414Y4614D01*
G01X30630Y4614D01*
G01X30745Y4613D01*
G01X31262Y4613D01*
G01X31406Y4612D01*
G01X32455Y4612D01*
G01X32571Y4613D01*
G01X33011Y4613D01*
G01X33116Y4614D01*
G01X33318Y4614D01*
G01X33416Y4615D01*
G01X33512Y4615D01*
G01X33605Y4616D01*
G01X33697Y4616D01*
G01X33786Y4617D01*
G01X33872Y4617D01*
G01X33957Y4618D01*
G01X34039Y4619D01*
G01X34119Y4619D01*
G01X34197Y4620D01*
G01X34273Y4621D01*
G01X34346Y4622D01*
G01X34418Y4623D01*
G01X34487Y4624D01*
G01X34553Y4625D01*
G01X34618Y4626D01*
G01X34680Y4627D01*
G01X34740Y4628D01*
G01X34798Y4629D01*
G01X34853Y4630D01*
G01X34907Y4631D01*
G01X34958Y4632D01*
G01X35007Y4634D01*
G01X35054Y4636D01*
G01X35098Y4637D01*
G01X35140Y4638D01*
G01X35181Y4640D01*
G01X35219Y4641D01*
G01X35254Y4643D01*
G01X35287Y4644D01*
G01X35319Y4646D01*
G01X35348Y4647D01*
G01X35374Y4649D01*
G01X35398Y4651D01*
G01X35421Y4653D01*
G01X35441Y4654D01*
G01X35459Y4656D01*
G01X35474Y4658D01*
G01X35488Y4660D01*
G01X35499Y4662D01*
G01X35508Y4664D01*
G01X35514Y4666D01*
G01X35565Y4687D01*
G01X35615Y4714D01*
G01X35666Y4746D01*
G01X35716Y4782D01*
G01X35765Y4821D01*
G01X35812Y4864D01*
G01X35858Y4909D01*
G01X35900Y4957D01*
G01X35938Y5006D01*
G01X35973Y5056D01*
G01X36003Y5105D01*
G01X36027Y5155D01*
G01X36032Y5168D01*
G01X36037Y5183D01*
G01X36042Y5199D01*
G01X36046Y5218D01*
G01X36050Y5239D01*
G01X36054Y5262D01*
G01X36058Y5288D01*
G01X36062Y5316D01*
G01X36065Y5347D01*
G01X36069Y5381D01*
G01X36071Y5417D01*
G01X36074Y5457D01*
G01X36077Y5500D01*
G01X36079Y5546D01*
G01X36081Y5596D01*
G01X36084Y5650D01*
G01X36085Y5707D01*
G01X36087Y5768D01*
G01X36089Y5833D01*
G01X36090Y5902D01*
G01X36092Y5976D01*
G01X36093Y6053D01*
G01X36094Y6135D01*
G01X36095Y6222D01*
G01X36095Y6313D01*
G01X36096Y6410D01*
G01X36097Y6512D01*
G01X36097Y6729D01*
G01X36098Y6847D01*
G01X36098Y8877D01*
G01X36283Y9176D01*
G01X36314Y9228D01*
G01X36345Y9281D01*
G01X36375Y9335D01*
G01X36403Y9387D01*
G01X36430Y9441D01*
G01X36456Y9495D01*
G01X36480Y9548D01*
G01X36503Y9602D01*
G01X36525Y9657D01*
G01X36547Y9711D01*
G01X36566Y9765D01*
G01X36585Y9820D01*
G01X36601Y9875D01*
G01X36618Y9929D01*
G01X36646Y10039D01*
G01X36670Y10149D01*
G01X36680Y10205D01*
G01X36689Y10260D01*
G01X36703Y10370D01*
G01X36708Y10425D01*
G01X36712Y10481D01*
G01X36715Y10536D01*
G01X36717Y10646D01*
G01X36716Y10702D01*
G01X36714Y10756D01*
G01X36711Y10811D01*
G01X36707Y10867D01*
G01X36701Y10921D01*
G01X36694Y10976D01*
G01X36686Y11031D01*
G01X36677Y11085D01*
G01X36667Y11139D01*
G01X36655Y11194D01*
G01X36643Y11248D01*
G01X36629Y11302D01*
G01X36614Y11355D01*
G01X36598Y11409D01*
G01X36581Y11463D01*
G01X36562Y11515D01*
G01X36542Y11569D01*
G01X36521Y11621D01*
G01X36499Y11674D01*
G01X36476Y11726D01*
G01X36452Y11778D01*
G01X36426Y11829D01*
G01X36400Y11881D01*
G01X36372Y11932D01*
G01X36343Y11983D01*
G01X36312Y12034D01*
G01X36281Y12083D01*
G01X36215Y12183D01*
G01X36180Y12232D01*
G01X36144Y12281D01*
G01X36107Y12329D01*
G01X36069Y12377D01*
G01X36029Y12425D01*
G01X35989Y12472D01*
G01X35947Y12519D01*
G01X35904Y12565D01*
G01X35862Y12609D01*
G01X35778Y12693D01*
G01X35735Y12735D01*
G01X35692Y12776D01*
G01X35648Y12816D01*
G01X35605Y12855D01*
G01X35561Y12894D01*
G01X35516Y12932D01*
G01X35471Y12969D01*
G01X35425Y13006D01*
G01X35379Y13042D01*
G01X35332Y13077D01*
G01X35286Y13111D01*
G01X35238Y13146D01*
G01X35191Y13179D01*
G01X35142Y13212D01*
G01X35094Y13244D01*
G01X35044Y13275D01*
G01X34995Y13306D01*
G01X34944Y13336D01*
G01X34894Y13365D01*
G01X34842Y13393D01*
G01X34790Y13422D01*
G01X34738Y13449D01*
G01X34632Y13503D01*
G01X34523Y13553D01*
G01X34468Y13578D01*
G01X34412Y13602D01*
G01X34356Y13625D01*
G01X34299Y13648D01*
G01X34183Y13692D01*
G01X34124Y13713D01*
G01X34064Y13734D01*
G01X34004Y13754D01*
G01X33882Y13792D01*
G01X33820Y13810D01*
G01X33757Y13828D01*
G01X33693Y13846D01*
G01X33629Y13862D01*
G01X33575Y13876D01*
G01X33519Y13888D01*
G01X33462Y13900D01*
G01X33403Y13912D01*
G01X33342Y13922D01*
G01X33279Y13933D01*
G01X33215Y13943D01*
G01X33150Y13952D01*
G01X33084Y13960D01*
G01X32948Y13976D01*
G01X32879Y13982D01*
G01X32809Y13988D01*
G01X32738Y13994D01*
G01X32667Y13999D01*
G01X32524Y14007D01*
G01X32452Y14010D01*
G01X32308Y14014D01*
G01X32236Y14015D01*
G01X32165Y14016D01*
G37*

%LPD*%
G36*
G01X34557Y7184D02*
G01X34508Y7190D01*
G01X34460Y7187D01*
G01X34410Y7173D01*
G01X34359Y7150D01*
G01X34304Y7116D01*
G01X34264Y7082D01*
G01X34232Y7043D01*
G01X34208Y7001D01*
G01X34192Y6955D01*
G01X34184Y6908D01*
G01X34184Y6860D01*
G01X34190Y6811D01*
G01X34204Y6764D01*
G01X34223Y6718D01*
G01X34248Y6676D01*
G01X34280Y6638D01*
G01X34316Y6604D01*
G01X34358Y6576D01*
G01X34404Y6554D01*
G01X34454Y6541D01*
G01X34508Y6536D01*
G01X34560Y6541D01*
G01X34608Y6553D01*
G01X34651Y6574D01*
G01X34691Y6600D01*
G01X34725Y6632D01*
G01X34755Y6669D01*
G01X34779Y6710D01*
G01X34798Y6753D01*
G01X34810Y6799D01*
G01X34817Y6846D01*
G01X34816Y6893D01*
G01X34809Y6940D01*
G01X34795Y6985D01*
G01X34774Y7028D01*
G01X34744Y7067D01*
G01X34706Y7103D01*
G01X34655Y7140D01*
G01X34605Y7167D01*
G01X34557Y7184D01*
G37*

%LPD*%
G36*
G01X29708Y7184D02*
G01X29660Y7190D01*
G01X29612Y7187D01*
G01X29562Y7173D01*
G01X29511Y7150D01*
G01X29456Y7116D01*
G01X29415Y7082D01*
G01X29383Y7043D01*
G01X29360Y7001D01*
G01X29344Y6955D01*
G01X29336Y6908D01*
G01X29335Y6860D01*
G01X29342Y6811D01*
G01X29355Y6764D01*
G01X29375Y6718D01*
G01X29401Y6676D01*
G01X29431Y6638D01*
G01X29468Y6604D01*
G01X29509Y6576D01*
G01X29555Y6554D01*
G01X29606Y6541D01*
G01X29660Y6536D01*
G01X29711Y6541D01*
G01X29759Y6553D01*
G01X29803Y6574D01*
G01X29842Y6600D01*
G01X29877Y6632D01*
G01X29906Y6669D01*
G01X29931Y6710D01*
G01X29949Y6753D01*
G01X29962Y6799D01*
G01X29968Y6846D01*
G01X29968Y6893D01*
G01X29961Y6940D01*
G01X29947Y6985D01*
G01X29925Y7028D01*
G01X29895Y7067D01*
G01X29858Y7103D01*
G01X29806Y7140D01*
G01X29757Y7167D01*
G01X29708Y7184D01*
G37*

%LPD*%
G36*
G01X32801Y6379D02*
G01X32763Y6385D01*
G01X32730Y6373D01*
G01X32695Y6341D01*
G01X32662Y6294D01*
G01X32636Y6237D01*
G01X32616Y6190D01*
G01X32589Y6147D01*
G01X32558Y6108D01*
G01X32521Y6073D01*
G01X32480Y6042D01*
G01X32435Y6014D01*
G01X32388Y5991D01*
G01X32337Y5972D01*
G01X32284Y5957D01*
G01X32229Y5945D01*
G01X32173Y5938D01*
G01X32117Y5935D01*
G01X32060Y5935D01*
G01X32004Y5941D01*
G01X31949Y5950D01*
G01X31895Y5962D01*
G01X31843Y5980D01*
G01X31794Y6001D01*
G01X31747Y6026D01*
G01X31704Y6055D01*
G01X31666Y6089D01*
G01X31631Y6126D01*
G01X31602Y6168D01*
G01X31579Y6214D01*
G01X31548Y6274D01*
G01X31514Y6322D01*
G01X31477Y6356D01*
G01X31441Y6377D01*
G01X31405Y6383D01*
G01X31372Y6374D01*
G01X31343Y6350D01*
G01X31320Y6309D01*
G01X31314Y6277D01*
G01X31316Y6240D01*
G01X31326Y6199D01*
G01X31344Y6154D01*
G01X31369Y6108D01*
G01X31399Y6060D01*
G01X31435Y6014D01*
G01X31474Y5968D01*
G01X31518Y5925D01*
G01X31564Y5885D01*
G01X31612Y5850D01*
G01X31662Y5821D01*
G01X31707Y5799D01*
G01X31757Y5780D01*
G01X31809Y5764D01*
G01X31864Y5752D01*
G01X31921Y5741D01*
G01X31980Y5734D01*
G01X32040Y5730D01*
G01X32100Y5728D01*
G01X32160Y5730D01*
G01X32220Y5734D01*
G01X32279Y5741D01*
G01X32336Y5751D01*
G01X32392Y5763D01*
G01X32444Y5779D01*
G01X32494Y5798D01*
G01X32540Y5819D01*
G01X32591Y5850D01*
G01X32640Y5885D01*
G01X32685Y5925D01*
G01X32725Y5969D01*
G01X32762Y6015D01*
G01X32794Y6062D01*
G01X32820Y6110D01*
G01X32842Y6156D01*
G01X32857Y6202D01*
G01X32866Y6244D01*
G01X32868Y6282D01*
G01X32863Y6316D01*
G01X32850Y6345D01*
G01X32830Y6366D01*
G01X32801Y6379D01*
G37*

%LPD*%
G54D10*
G01X29210Y32385D02*
G01X29210Y17145D01*
G01X16510Y17145D01*
G01X16510Y32385D01*
G01X29210Y32385D01*
G54D16*
G01X7239Y28321D02*
G01X7239Y21209D01*
G01X13081Y21209D01*
G01X13081Y28321D01*
G01X7239Y28321D01*
G54D17*
G01X28067Y38735D02*
G01X10287Y38735D01*
G01X9017Y41275D01*
G01X9017Y74295D01*
G01X29337Y74295D01*
G01X29337Y41275D01*
G54D10*
G01X29337Y41275D02*
G01X28067Y38735D01*
G54D18*
G01X3053Y15349D02*
G01X3157Y15402D01*
G01X3261Y15506D01*
G01X3312Y15608D01*
G01X3312Y15816D01*
G01X3261Y15920D01*
G01X3157Y16024D01*
G01X3053Y16078D01*
G01X2895Y16129D01*
G01X2636Y16129D01*
G01X2481Y16078D01*
G01X2377Y16024D01*
G01X2273Y15920D01*
G01X2222Y15816D01*
G01X2222Y15608D01*
G01X2273Y15506D01*
G01X2377Y15402D01*
G01X2481Y15349D01*
G01X2636Y15349D01*
G01X2636Y15608D02*
G01X2636Y15349D01*
G01X3312Y15006D02*
G01X2222Y15006D01*
G01X3312Y15006D02*
G01X2222Y14279D01*
G01X3312Y14279D02*
G01X2222Y14279D01*
G01X3312Y13936D02*
G01X2222Y13936D01*
G01X3312Y13936D02*
G01X3312Y13573D01*
G01X3261Y13416D01*
G01X3157Y13312D01*
G01X3053Y13261D01*
G01X2895Y13208D01*
G01X2636Y13208D01*
G01X2481Y13261D01*
G01X2377Y13312D01*
G01X2273Y13416D01*
G01X2222Y13573D01*
G01X2222Y13936D01*
G01X3312Y10807D02*
G01X3312Y11325D01*
G01X2844Y11379D01*
G01X2895Y11325D01*
G01X2948Y11170D01*
G01X2948Y11013D01*
G01X2895Y10858D01*
G01X2794Y10754D01*
G01X2636Y10703D01*
G01X2532Y10703D01*
G01X2377Y10754D01*
G01X2273Y10858D01*
G01X2222Y11013D01*
G01X2222Y11170D01*
G01X2273Y11325D01*
G01X2324Y11379D01*
G01X2428Y11430D01*
G01X2948Y10360D02*
G01X2222Y10048D01*
G01X2948Y9735D02*
G01X2222Y10048D01*
G01X3312Y8592D02*
G01X2222Y8592D01*
G01X3312Y8592D02*
G01X2222Y8178D01*
G01X3312Y7762D02*
G01X2222Y8178D01*
G01X3312Y7762D02*
G01X2222Y7762D01*
G01X3312Y7002D02*
G01X2222Y7419D01*
G01X3312Y7002D02*
G01X2222Y6588D01*
G01X2585Y7264D02*
G01X2585Y6743D01*
G01X3312Y6245D02*
G01X2222Y5516D01*
G01X3312Y5516D02*
G01X2222Y6245D01*
G01X12573Y13345D02*
G01X12573Y12255D01*
G01X12573Y13345D02*
G01X12936Y13345D01*
G01X13093Y13294D01*
G01X13195Y13190D01*
G01X13248Y13086D01*
G01X13299Y12928D01*
G01X13299Y12669D01*
G01X13248Y12514D01*
G01X13195Y12410D01*
G01X13093Y12306D01*
G01X12936Y12255D01*
G01X12573Y12255D01*
G01X13642Y13345D02*
G01X13642Y12565D01*
G01X13695Y12410D01*
G01X13799Y12306D01*
G01X13954Y12255D01*
G01X14058Y12255D01*
G01X14213Y12306D01*
G01X14317Y12410D01*
G01X14371Y12565D01*
G01X14371Y13345D01*
G01X14714Y13345D02*
G01X14714Y12255D01*
G01X14714Y13345D02*
G01X15128Y12255D01*
G01X15544Y13345D02*
G01X15128Y12255D01*
G01X15544Y13345D02*
G01X15544Y12255D01*
G01X15887Y13345D02*
G01X15887Y12255D01*
G01X15887Y13345D02*
G01X16355Y13345D01*
G01X16510Y13294D01*
G01X16563Y13241D01*
G01X16614Y13136D01*
G01X16614Y12981D01*
G01X16563Y12877D01*
G01X16510Y12827D01*
G01X16355Y12773D01*
G01X15887Y12773D01*
G01X17686Y13190D02*
G01X17581Y13294D01*
G01X17424Y13345D01*
G01X17218Y13345D01*
G01X17061Y13294D01*
G01X16957Y13190D01*
G01X16957Y13086D01*
G01X17010Y12981D01*
G01X17061Y12928D01*
G01X17165Y12877D01*
G01X17477Y12773D01*
G01X17581Y12722D01*
G01X17632Y12669D01*
G01X17686Y12565D01*
G01X17686Y12410D01*
G01X17581Y12306D01*
G01X17424Y12255D01*
G01X17218Y12255D01*
G01X17061Y12306D01*
G01X16957Y12410D01*
G01X18392Y13345D02*
G01X18392Y12255D01*
G01X18028Y13345D02*
G01X18755Y13345D01*
G01X19098Y13345D02*
G01X19098Y12255D01*
G01X19098Y13345D02*
G01X19773Y13345D01*
G01X19098Y12827D02*
G01X19514Y12827D01*
G01X19098Y12255D02*
G01X19773Y12255D01*
G01X20116Y13345D02*
G01X20116Y12255D01*
G01X20116Y13345D02*
G01X20584Y13345D01*
G01X20739Y13294D01*
G01X20792Y13241D01*
G01X20843Y13136D01*
G01X20843Y13032D01*
G01X20792Y12928D01*
G01X20739Y12877D01*
G01X20584Y12827D01*
G01X20116Y12827D01*
G01X20480Y12827D02*
G01X20843Y12255D01*
G01X21186Y11889D02*
G01X22123Y11889D01*
G01X22466Y13345D02*
G01X22466Y12255D01*
G01X22466Y13345D02*
G01X23139Y13345D01*
G01X22466Y12827D02*
G01X22880Y12827D01*
G01X23482Y13345D02*
G01X23482Y12255D01*
G01X23825Y13345D02*
G01X23825Y12255D01*
G01X23825Y13345D02*
G01X24295Y13345D01*
G01X24450Y13294D01*
G01X24500Y13241D01*
G01X24554Y13136D01*
G01X24554Y13032D01*
G01X24500Y12928D01*
G01X24450Y12877D01*
G01X24295Y12827D01*
G01X23825Y12827D01*
G01X24190Y12827D02*
G01X24554Y12255D01*
G01X24897Y13345D02*
G01X24897Y12255D01*
G01X24897Y13345D02*
G01X25572Y13345D01*
G01X24897Y12827D02*
G01X25311Y12827D01*
G01X24897Y12255D02*
G01X25572Y12255D01*
G01X14224Y10170D02*
G01X14224Y9080D01*
G01X14224Y10170D02*
G01X14691Y10170D01*
G01X14846Y10119D01*
G01X14899Y10066D01*
G01X14950Y9961D01*
G01X14950Y9857D01*
G01X14899Y9753D01*
G01X14846Y9702D01*
G01X14691Y9652D01*
G01X14224Y9652D01*
G01X14587Y9652D02*
G01X14950Y9080D01*
G01X15293Y9494D02*
G01X15918Y9494D01*
G01X15918Y9598D01*
G01X15864Y9702D01*
G01X15814Y9753D01*
G01X15709Y9806D01*
G01X15554Y9806D01*
G01X15450Y9753D01*
G01X15346Y9652D01*
G01X15293Y9494D01*
G01X15293Y9390D01*
G01X15346Y9235D01*
G01X15450Y9131D01*
G01X15554Y9080D01*
G01X15709Y9080D01*
G01X15814Y9131D01*
G01X15918Y9235D01*
G01X16261Y9806D02*
G01X16573Y9080D01*
G01X16883Y9806D02*
G01X16573Y9080D01*
G01X17279Y9339D02*
G01X17226Y9286D01*
G01X17279Y9235D01*
G01X17330Y9286D01*
G01X17279Y9339D01*
G01X18785Y10170D02*
G01X18630Y10119D01*
G01X18526Y9961D01*
G01X18473Y9702D01*
G01X18473Y9547D01*
G01X18526Y9286D01*
G01X18630Y9131D01*
G01X18785Y9080D01*
G01X18889Y9080D01*
G01X19044Y9131D01*
G01X19149Y9286D01*
G01X19202Y9547D01*
G01X19202Y9702D01*
G01X19149Y9961D01*
G01X19044Y10119D01*
G01X18889Y10170D01*
G01X18785Y10170D01*
G01X19596Y9339D02*
G01X19545Y9286D01*
G01X19596Y9235D01*
G01X19646Y9286D01*
G01X19596Y9339D01*
G01X20302Y10170D02*
G01X20147Y10119D01*
G01X20043Y9961D01*
G01X19989Y9702D01*
G01X19989Y9547D01*
G01X20043Y9286D01*
G01X20147Y9131D01*
G01X20302Y9080D01*
G01X20406Y9080D01*
G01X20561Y9131D01*
G01X20665Y9286D01*
G01X20718Y9547D01*
G01X20718Y9702D01*
G01X20665Y9961D01*
G01X20561Y10119D01*
G01X20406Y10170D01*
G01X20302Y10170D01*
G01X21374Y10170D02*
G01X21216Y10119D01*
G01X21112Y9961D01*
G01X21061Y9702D01*
G01X21061Y9547D01*
G01X21112Y9286D01*
G01X21216Y9131D01*
G01X21374Y9080D01*
G01X21475Y9080D01*
G01X21633Y9131D01*
G01X21737Y9286D01*
G01X21788Y9547D01*
G01X21788Y9702D01*
G01X21737Y9961D01*
G01X21633Y10119D01*
G01X21475Y10170D01*
G01X21374Y10170D01*
G01X22443Y10170D02*
G01X22288Y10119D01*
G01X22184Y9961D01*
G01X22131Y9702D01*
G01X22131Y9547D01*
G01X22184Y9286D01*
G01X22288Y9131D01*
G01X22443Y9080D01*
G01X22547Y9080D01*
G01X22702Y9131D01*
G01X22806Y9286D01*
G01X22860Y9547D01*
G01X22860Y9702D01*
G01X22806Y9961D01*
G01X22702Y10119D01*
G01X22547Y10170D01*
G01X22443Y10170D01*
G01X23512Y10170D02*
G01X23357Y10119D01*
G01X23253Y9961D01*
G01X23202Y9702D01*
G01X23202Y9547D01*
G01X23253Y9286D01*
G01X23357Y9131D01*
G01X23512Y9080D01*
G01X23616Y9080D01*
G01X23774Y9131D01*
G01X23876Y9286D01*
G01X23929Y9547D01*
G01X23929Y9702D01*
G01X23876Y9961D01*
G01X23774Y10119D01*
G01X23616Y10170D01*
G01X23512Y10170D01*
G01X24272Y9961D02*
G01X24376Y10015D01*
G01X24531Y10170D01*
G01X24531Y9080D01*
G01X8128Y3820D02*
G01X8128Y2730D01*
G01X8128Y3248D02*
G01X8282Y3403D01*
G01X8387Y3456D01*
G01X8544Y3456D01*
G01X8648Y3403D01*
G01X8699Y3248D01*
G01X8699Y2730D01*
G01X9197Y3820D02*
G01X9197Y2936D01*
G01X9250Y2781D01*
G01X9354Y2730D01*
G01X9458Y2730D01*
G01X9042Y3456D02*
G01X9405Y3456D01*
G01X9956Y3820D02*
G01X9956Y2936D01*
G01X10007Y2781D01*
G01X10111Y2730D01*
G01X10215Y2730D01*
G01X9801Y3456D02*
G01X10165Y3456D01*
G01X10558Y3456D02*
G01X10558Y2364D01*
G01X10558Y3302D02*
G01X10662Y3403D01*
G01X10767Y3456D01*
G01X10922Y3456D01*
G01X11026Y3403D01*
G01X11130Y3302D01*
G01X11183Y3144D01*
G01X11183Y3040D01*
G01X11130Y2885D01*
G01X11026Y2781D01*
G01X10922Y2730D01*
G01X10767Y2730D01*
G01X10662Y2781D01*
G01X10558Y2885D01*
G01X12098Y3302D02*
G01X12044Y3403D01*
G01X11889Y3456D01*
G01X11734Y3456D01*
G01X11577Y3403D01*
G01X11526Y3302D01*
G01X11577Y3197D01*
G01X11681Y3144D01*
G01X11940Y3093D01*
G01X12044Y3040D01*
G01X12098Y2936D01*
G01X12098Y2885D01*
G01X12044Y2781D01*
G01X11889Y2730D01*
G01X11734Y2730D01*
G01X11577Y2781D01*
G01X11526Y2885D01*
G01X12491Y3352D02*
G01X12440Y3302D01*
G01X12491Y3248D01*
G01X12545Y3302D01*
G01X12491Y3352D01*
G01X12491Y2989D02*
G01X12440Y2936D01*
G01X12491Y2885D01*
G01X12545Y2936D01*
G01X12491Y2989D01*
G01X13822Y4028D02*
G01X12887Y2364D01*
G01X15100Y4028D02*
G01X14165Y2364D01*
G01X15598Y3820D02*
G01X15598Y2936D01*
G01X15651Y2781D01*
G01X15755Y2730D01*
G01X15859Y2730D01*
G01X15443Y3456D02*
G01X15806Y3456D01*
G01X16461Y3456D02*
G01X16357Y3403D01*
G01X16253Y3302D01*
G01X16202Y3144D01*
G01X16202Y3040D01*
G01X16253Y2885D01*
G01X16357Y2781D01*
G01X16461Y2730D01*
G01X16616Y2730D01*
G01X16720Y2781D01*
G01X16824Y2885D01*
G01X16878Y3040D01*
G01X16878Y3144D01*
G01X16824Y3302D01*
G01X16720Y3403D01*
G01X16616Y3456D01*
G01X16461Y3456D01*
G01X17843Y3456D02*
G01X17843Y2730D01*
G01X17843Y3302D02*
G01X17739Y3403D01*
G01X17635Y3456D01*
G01X17480Y3456D01*
G01X17376Y3403D01*
G01X17272Y3302D01*
G01X17221Y3144D01*
G01X17221Y3040D01*
G01X17272Y2885D01*
G01X17376Y2781D01*
G01X17480Y2730D01*
G01X17635Y2730D01*
G01X17739Y2781D01*
G01X17843Y2885D01*
G01X18757Y3302D02*
G01X18707Y3403D01*
G01X18549Y3456D01*
G01X18394Y3456D01*
G01X18237Y3403D01*
G01X18186Y3302D01*
G01X18237Y3197D01*
G01X18341Y3144D01*
G01X18602Y3093D01*
G01X18707Y3040D01*
G01X18757Y2936D01*
G01X18757Y2885D01*
G01X18707Y2781D01*
G01X18549Y2730D01*
G01X18394Y2730D01*
G01X18237Y2781D01*
G01X18186Y2885D01*
G01X19255Y3820D02*
G01X19255Y2936D01*
G01X19309Y2781D01*
G01X19413Y2730D01*
G01X19517Y2730D01*
G01X19100Y3456D02*
G01X19464Y3456D01*
G01X19911Y2989D02*
G01X19860Y2936D01*
G01X19911Y2885D01*
G01X19964Y2936D01*
G01X19911Y2989D01*
G01X20307Y3820D02*
G01X20358Y3769D01*
G01X20408Y3820D01*
G01X20358Y3873D01*
G01X20307Y3820D01*
G01X20358Y3456D02*
G01X20358Y2730D01*
G01X20751Y3456D02*
G01X20751Y2730D01*
G01X20751Y3248D02*
G01X20909Y3403D01*
G01X21013Y3456D01*
G01X21168Y3456D01*
G01X21272Y3403D01*
G01X21323Y3248D01*
G01X21323Y2730D01*
G01X22291Y3820D02*
G01X22291Y2730D01*
G01X22291Y3302D02*
G01X22186Y3403D01*
G01X22082Y3456D01*
G01X21927Y3456D01*
G01X21823Y3403D01*
G01X21719Y3302D01*
G01X21666Y3144D01*
G01X21666Y3040D01*
G01X21719Y2885D01*
G01X21823Y2781D01*
G01X21927Y2730D01*
G01X22082Y2730D01*
G01X22186Y2781D01*
G01X22291Y2885D01*
G01X22633Y3456D02*
G01X22633Y2936D01*
G01X22684Y2781D01*
G01X22788Y2730D01*
G01X22946Y2730D01*
G01X23050Y2781D01*
G01X23205Y2936D01*
G01X23205Y3456D02*
G01X23205Y2730D01*
G01X24119Y3302D02*
G01X24066Y3403D01*
G01X23911Y3456D01*
G01X23756Y3456D01*
G01X23599Y3403D01*
G01X23548Y3302D01*
G01X23599Y3197D01*
G01X23703Y3144D01*
G01X23964Y3093D01*
G01X24066Y3040D01*
G01X24119Y2936D01*
G01X24119Y2885D01*
G01X24066Y2781D01*
G01X23911Y2730D01*
G01X23756Y2730D01*
G01X23599Y2781D01*
G01X23548Y2885D01*
G01X24617Y3820D02*
G01X24617Y2936D01*
G01X24671Y2781D01*
G01X24775Y2730D01*
G01X24879Y2730D01*
G01X24462Y3456D02*
G01X24825Y3456D01*
G01X25222Y3456D02*
G01X25222Y2730D01*
G01X25222Y3144D02*
G01X25273Y3302D01*
G01X25377Y3403D01*
G01X25481Y3456D01*
G01X25636Y3456D01*
G01X25979Y3820D02*
G01X26032Y3769D01*
G01X26083Y3820D01*
G01X26032Y3873D01*
G01X25979Y3820D01*
G01X26032Y3456D02*
G01X26032Y2730D01*
G01X26426Y3144D02*
G01X27051Y3144D01*
G01X27051Y3248D01*
G01X26997Y3352D01*
G01X26946Y3403D01*
G01X26842Y3456D01*
G01X26685Y3456D01*
G01X26581Y3403D01*
G01X26479Y3302D01*
G01X26426Y3144D01*
G01X26426Y3040D01*
G01X26479Y2885D01*
G01X26581Y2781D01*
G01X26685Y2730D01*
G01X26842Y2730D01*
G01X26946Y2781D01*
G01X27051Y2885D01*
G01X27965Y3302D02*
G01X27912Y3403D01*
G01X27757Y3456D01*
G01X27599Y3456D01*
G01X27444Y3403D01*
G01X27393Y3302D01*
G01X27444Y3197D01*
G01X27548Y3144D01*
G01X27807Y3093D01*
G01X27912Y3040D01*
G01X27965Y2936D01*
G01X27965Y2885D01*
G01X27912Y2781D01*
G01X27757Y2730D01*
G01X27599Y2730D01*
G01X27444Y2781D01*
G01X27393Y2885D01*
G01X3556Y25156D02*
G01X3556Y24066D01*
G01X4282Y25156D02*
G01X4282Y24066D01*
G01X3556Y24638D02*
G01X4282Y24638D01*
G01X4625Y25156D02*
G01X5041Y24066D01*
G01X5458Y25156D02*
G01X5041Y24066D01*
G01X6319Y25156D02*
G01X5801Y24429D01*
G01X6578Y24429D01*
G01X6319Y25156D02*
G01X6319Y24066D01*
G01X4335Y27310D02*
G01X4282Y27414D01*
G01X4178Y27518D01*
G01X4076Y27569D01*
G01X3868Y27569D01*
G01X3764Y27518D01*
G01X3660Y27414D01*
G01X3606Y27310D01*
G01X3556Y27152D01*
G01X3556Y26893D01*
G01X3606Y26738D01*
G01X3660Y26634D01*
G01X3764Y26530D01*
G01X3868Y26479D01*
G01X4076Y26479D01*
G01X4178Y26530D01*
G01X4282Y26634D01*
G01X4335Y26738D01*
G01X4335Y26893D01*
G01X4076Y26893D02*
G01X4335Y26893D01*
G01X4678Y27569D02*
G01X4678Y26479D01*
G01X4678Y27569D02*
G01X5405Y26479D01*
G01X5405Y27569D02*
G01X5405Y26479D01*
G01X5748Y27569D02*
G01X5748Y26479D01*
G01X5748Y27569D02*
G01X6111Y27569D01*
G01X6268Y27518D01*
G01X6372Y27414D01*
G01X6423Y27310D01*
G01X6477Y27152D01*
G01X6477Y26893D01*
G01X6423Y26738D01*
G01X6372Y26634D01*
G01X6268Y26530D01*
G01X6111Y26479D01*
G01X5748Y26479D01*
G01X4445Y22743D02*
G01X4445Y21653D01*
G01X5171Y22743D02*
G01X5171Y21653D01*
G01X4445Y22225D02*
G01X5171Y22225D01*
G01X5514Y22743D02*
G01X5930Y21653D01*
G01X6347Y22743D02*
G01X5930Y21653D01*
G01X8636Y7249D02*
G01X8636Y6159D01*
G01X8636Y6677D02*
G01X8790Y6832D01*
G01X8895Y6885D01*
G01X9052Y6885D01*
G01X9156Y6832D01*
G01X9207Y6677D01*
G01X9207Y6159D01*
G01X10172Y6885D02*
G01X10172Y6159D01*
G01X10172Y6731D02*
G01X10071Y6832D01*
G01X9966Y6885D01*
G01X9809Y6885D01*
G01X9705Y6832D01*
G01X9601Y6731D01*
G01X9550Y6573D01*
G01X9550Y6469D01*
G01X9601Y6314D01*
G01X9705Y6210D01*
G01X9809Y6159D01*
G01X9966Y6159D01*
G01X10071Y6210D01*
G01X10172Y6314D01*
G01X10515Y6885D02*
G01X10515Y6159D01*
G01X10515Y6677D02*
G01X10673Y6832D01*
G01X10777Y6885D01*
G01X10932Y6885D01*
G01X11036Y6832D01*
G01X11087Y6677D01*
G01X11087Y6159D01*
G01X12001Y6885D02*
G01X11430Y6159D01*
G01X11430Y6885D02*
G01X12001Y6885D01*
G01X11430Y6159D02*
G01X12001Y6159D01*
G01X12606Y6885D02*
G01X12501Y6832D01*
G01X12397Y6731D01*
G01X12344Y6573D01*
G01X12344Y6469D01*
G01X12397Y6314D01*
G01X12501Y6210D01*
G01X12606Y6159D01*
G01X12760Y6159D01*
G01X12865Y6210D01*
G01X12969Y6314D01*
G01X13020Y6469D01*
G01X13020Y6573D01*
G01X12969Y6731D01*
G01X12865Y6832D01*
G01X12760Y6885D01*
G01X12606Y6885D01*
G01X14142Y6832D02*
G01X14091Y6936D01*
G01X13987Y6990D01*
G01X13830Y6990D01*
G01X13728Y6936D01*
G01X13675Y6885D01*
G01X13624Y6731D01*
G01X13624Y6573D01*
G01X13675Y6469D01*
G01X13779Y6418D01*
G01X13934Y6418D01*
G01X14038Y6469D01*
G01X14091Y6573D01*
G01X13830Y6990D02*
G01X13728Y6885D01*
G01X13675Y6731D01*
G01X13675Y6573D01*
G01X13728Y6469D01*
G01X13779Y6418D01*
G01X14142Y6990D02*
G01X14091Y6573D01*
G01X14091Y6469D01*
G01X14196Y6418D01*
G01X14300Y6418D01*
G01X14401Y6522D01*
G01X14455Y6677D01*
G01X14455Y6781D01*
G01X14401Y6936D01*
G01X14351Y7040D01*
G01X14246Y7145D01*
G01X14142Y7198D01*
G01X13987Y7249D01*
G01X13830Y7249D01*
G01X13675Y7198D01*
G01X13571Y7145D01*
G01X13467Y7040D01*
G01X13416Y6936D01*
G01X13362Y6781D01*
G01X13362Y6626D01*
G01X13416Y6469D01*
G01X13467Y6365D01*
G01X13571Y6261D01*
G01X13675Y6210D01*
G01X13830Y6159D01*
G01X13987Y6159D01*
G01X14142Y6210D01*
G01X14246Y6261D01*
G01X14300Y6314D01*
G01X14196Y6990D02*
G01X14142Y6573D01*
G01X14142Y6469D01*
G01X14196Y6418D01*
G01X14952Y7249D02*
G01X14952Y6365D01*
G01X15006Y6210D01*
G01X15110Y6159D01*
G01X15214Y6159D01*
G01X14798Y6885D02*
G01X15161Y6885D01*
G01X15816Y6885D02*
G01X15712Y6832D01*
G01X15608Y6731D01*
G01X15557Y6573D01*
G01X15557Y6469D01*
G01X15608Y6314D01*
G01X15712Y6210D01*
G01X15816Y6159D01*
G01X15971Y6159D01*
G01X16075Y6210D01*
G01X16179Y6314D01*
G01X16230Y6469D01*
G01X16230Y6573D01*
G01X16179Y6731D01*
G01X16075Y6832D01*
G01X15971Y6885D01*
G01X15816Y6885D01*
G01X17198Y6885D02*
G01X17198Y6159D01*
G01X17198Y6731D02*
G01X17094Y6832D01*
G01X16990Y6885D01*
G01X16835Y6885D01*
G01X16730Y6832D01*
G01X16626Y6731D01*
G01X16573Y6573D01*
G01X16573Y6469D01*
G01X16626Y6314D01*
G01X16730Y6210D01*
G01X16835Y6159D01*
G01X16990Y6159D01*
G01X17094Y6210D01*
G01X17198Y6314D01*
G01X18112Y6731D02*
G01X18059Y6832D01*
G01X17904Y6885D01*
G01X17749Y6885D01*
G01X17592Y6832D01*
G01X17541Y6731D01*
G01X17592Y6626D01*
G01X17696Y6573D01*
G01X17957Y6522D01*
G01X18059Y6469D01*
G01X18112Y6365D01*
G01X18112Y6314D01*
G01X18059Y6210D01*
G01X17904Y6159D01*
G01X17749Y6159D01*
G01X17592Y6210D01*
G01X17541Y6314D01*
G01X18610Y7249D02*
G01X18610Y6365D01*
G01X18663Y6210D01*
G01X18768Y6159D01*
G01X18872Y6159D01*
G01X18455Y6885D02*
G01X18818Y6885D01*
G01X19265Y6418D02*
G01X19215Y6365D01*
G01X19265Y6314D01*
G01X19316Y6365D01*
G01X19265Y6418D01*
G01X19659Y7249D02*
G01X19712Y7198D01*
G01X19763Y7249D01*
G01X19712Y7302D01*
G01X19659Y7249D01*
G01X19712Y6885D02*
G01X19712Y6159D01*
G01X20106Y6885D02*
G01X20106Y6159D01*
G01X20106Y6677D02*
G01X20264Y6832D01*
G01X20368Y6885D01*
G01X20523Y6885D01*
G01X20627Y6832D01*
G01X20678Y6677D01*
G01X20678Y6159D01*
G01X21645Y7249D02*
G01X21645Y6159D01*
G01X21645Y6731D02*
G01X21541Y6832D01*
G01X21437Y6885D01*
G01X21282Y6885D01*
G01X21178Y6832D01*
G01X21074Y6731D01*
G01X21021Y6573D01*
G01X21021Y6469D01*
G01X21074Y6314D01*
G01X21178Y6210D01*
G01X21282Y6159D01*
G01X21437Y6159D01*
G01X21541Y6210D01*
G01X21645Y6314D01*
G01X21988Y6885D02*
G01X21988Y6365D01*
G01X22039Y6210D01*
G01X22143Y6159D01*
G01X22301Y6159D01*
G01X22402Y6210D01*
G01X22560Y6365D01*
G01X22560Y6885D02*
G01X22560Y6159D01*
G01X23474Y6731D02*
G01X23421Y6832D01*
G01X23266Y6885D01*
G01X23111Y6885D01*
G01X22953Y6832D01*
G01X22903Y6731D01*
G01X22953Y6626D01*
G01X23058Y6573D01*
G01X23317Y6522D01*
G01X23421Y6469D01*
G01X23474Y6365D01*
G01X23474Y6314D01*
G01X23421Y6210D01*
G01X23266Y6159D01*
G01X23111Y6159D01*
G01X22953Y6210D01*
G01X22903Y6314D01*
G01X23972Y7249D02*
G01X23972Y6365D01*
G01X24025Y6210D01*
G01X24130Y6159D01*
G01X24231Y6159D01*
G01X23817Y6885D02*
G01X24180Y6885D01*
G01X24574Y6885D02*
G01X24574Y6159D01*
G01X24574Y6573D02*
G01X24627Y6731D01*
G01X24731Y6832D01*
G01X24836Y6885D01*
G01X24991Y6885D01*
G01X25333Y7249D02*
G01X25387Y7198D01*
G01X25438Y7249D01*
G01X25387Y7302D01*
G01X25333Y7249D01*
G01X25387Y6885D02*
G01X25387Y6159D01*
G01X25781Y6573D02*
G01X26403Y6573D01*
G01X26403Y6677D01*
G01X26352Y6781D01*
G01X26301Y6832D01*
G01X26197Y6885D01*
G01X26040Y6885D01*
G01X25935Y6832D01*
G01X25831Y6731D01*
G01X25781Y6573D01*
G01X25781Y6469D01*
G01X25831Y6314D01*
G01X25935Y6210D01*
G01X26040Y6159D01*
G01X26197Y6159D01*
G01X26301Y6210D01*
G01X26403Y6314D01*
G01X27317Y6731D02*
G01X27266Y6832D01*
G01X27111Y6885D01*
G01X26954Y6885D01*
G01X26799Y6832D01*
G01X26746Y6731D01*
G01X26799Y6626D01*
G01X26903Y6573D01*
G01X27162Y6522D01*
G01X27266Y6469D01*
G01X27317Y6365D01*
G01X27317Y6314D01*
G01X27266Y6210D01*
G01X27111Y6159D01*
G01X26954Y6159D01*
G01X26799Y6210D01*
G01X26746Y6314D01*
G54D19*
G01X30226Y18547D02*
G01X30226Y18061D01*
G01X30226Y18061D02*
G01X30502Y18061D01*
G01X30655Y18547D02*
G01X30840Y18061D01*
G01X31026Y18547D02*
G01X30840Y18061D01*
G01X31178Y18453D02*
G01X31224Y18478D01*
G01X31292Y18547D01*
G01X31292Y18061D01*
G01X30226Y21214D02*
G01X30226Y20728D01*
G01X30226Y20728D02*
G01X30502Y20728D01*
G01X30655Y21214D02*
G01X30840Y20728D01*
G01X31026Y21214D02*
G01X30840Y20728D01*
G01X31201Y21097D02*
G01X31201Y21120D01*
G01X31224Y21168D01*
G01X31247Y21191D01*
G01X31292Y21214D01*
G01X31384Y21214D01*
G01X31432Y21191D01*
G01X31455Y21168D01*
G01X31478Y21120D01*
G01X31478Y21074D01*
G01X31455Y21028D01*
G01X31407Y20960D01*
G01X31178Y20728D01*
G01X31501Y20728D01*
G01X14732Y18547D02*
G01X14732Y18061D01*
G01X15054Y18547D02*
G01X15054Y18061D01*
G01X14732Y18315D02*
G01X15054Y18315D01*
G01X15206Y18547D02*
G01X15392Y18061D01*
G01X15577Y18547D02*
G01X15392Y18061D01*
G01X15730Y18453D02*
G01X15775Y18478D01*
G01X15844Y18547D01*
G01X15844Y18061D01*
G01X14478Y21214D02*
G01X14478Y20728D01*
G01X14800Y21214D02*
G01X14800Y20728D01*
G01X14478Y20982D02*
G01X14800Y20982D01*
G01X14952Y21214D02*
G01X15138Y20728D01*
G01X15323Y21214D02*
G01X15138Y20728D01*
G01X15499Y21097D02*
G01X15499Y21120D01*
G01X15521Y21168D01*
G01X15544Y21191D01*
G01X15590Y21214D01*
G01X15684Y21214D01*
G01X15730Y21191D01*
G01X15753Y21168D01*
G01X15775Y21120D01*
G01X15775Y21074D01*
G01X15753Y21028D01*
G01X15707Y20960D01*
G01X15476Y20728D01*
G01X15798Y20728D01*
G01X30226Y23754D02*
G01X30226Y23268D01*
G01X30226Y23268D02*
G01X30502Y23268D01*
G01X30655Y23754D02*
G01X30840Y23268D01*
G01X31026Y23754D02*
G01X30840Y23268D01*
G01X30444Y26177D02*
G01X30421Y26225D01*
G01X30375Y26271D01*
G01X30330Y26294D01*
G01X30238Y26294D01*
G01X30190Y26271D01*
G01X30144Y26225D01*
G01X30121Y26177D01*
G01X30099Y26108D01*
G01X30099Y25994D01*
G01X30121Y25923D01*
G01X30144Y25877D01*
G01X30190Y25831D01*
G01X30238Y25808D01*
G01X30330Y25808D01*
G01X30375Y25831D01*
G01X30421Y25877D01*
G01X30444Y25923D01*
G01X30444Y25994D01*
G01X30330Y25994D02*
G01X30444Y25994D01*
G01X30596Y26294D02*
G01X30596Y25808D01*
G01X30596Y26294D02*
G01X30921Y25808D01*
G01X30921Y26294D02*
G01X30921Y25808D01*
G01X31074Y26294D02*
G01X31074Y25808D01*
G01X31074Y26294D02*
G01X31234Y26294D01*
G01X31305Y26271D01*
G01X31351Y26225D01*
G01X31374Y26177D01*
G01X31396Y26108D01*
G01X31396Y25994D01*
G01X31374Y25923D01*
G01X31351Y25877D01*
G01X31305Y25831D01*
G01X31234Y25808D01*
G01X31074Y25808D01*
G01X30099Y28961D02*
G01X30099Y28475D01*
G01X30099Y28475D02*
G01X30375Y28475D01*
G01X30528Y28961D02*
G01X30713Y28475D01*
G01X30899Y28961D02*
G01X30713Y28475D01*
G01X31097Y28961D02*
G01X31351Y28961D01*
G01X31211Y28775D01*
G01X31280Y28775D01*
G01X31328Y28752D01*
G01X31351Y28729D01*
G01X31374Y28661D01*
G01X31374Y28613D01*
G01X31351Y28544D01*
G01X31305Y28498D01*
G01X31234Y28475D01*
G01X31165Y28475D01*
G01X31097Y28498D01*
G01X31074Y28521D01*
G01X31051Y28567D01*
G01X29972Y31247D02*
G01X29972Y30761D01*
G01X29972Y30761D02*
G01X30248Y30761D01*
G01X30401Y31247D02*
G01X30586Y30761D01*
G01X30772Y31247D02*
G01X30586Y30761D01*
G01X31153Y31247D02*
G01X30924Y30924D01*
G01X31269Y30924D01*
G01X31153Y31247D02*
G01X31153Y30761D01*
G01X14859Y23754D02*
G01X14859Y23268D01*
G01X15181Y23754D02*
G01X15181Y23268D01*
G01X14859Y23522D02*
G01X15181Y23522D01*
G01X15333Y23754D02*
G01X15519Y23268D01*
G01X15704Y23754D02*
G01X15519Y23268D01*
G01X14823Y26177D02*
G01X14800Y26225D01*
G01X14754Y26271D01*
G01X14709Y26294D01*
G01X14617Y26294D01*
G01X14569Y26271D01*
G01X14523Y26225D01*
G01X14500Y26177D01*
G01X14478Y26108D01*
G01X14478Y25994D01*
G01X14500Y25923D01*
G01X14523Y25877D01*
G01X14569Y25831D01*
G01X14617Y25808D01*
G01X14709Y25808D01*
G01X14754Y25831D01*
G01X14800Y25877D01*
G01X14823Y25923D01*
G01X14823Y25994D01*
G01X14709Y25994D02*
G01X14823Y25994D01*
G01X14975Y26294D02*
G01X14975Y25808D01*
G01X14975Y26294D02*
G01X15300Y25808D01*
G01X15300Y26294D02*
G01X15300Y25808D01*
G01X15453Y26294D02*
G01X15453Y25808D01*
G01X15453Y26294D02*
G01X15613Y26294D01*
G01X15684Y26271D01*
G01X15730Y26225D01*
G01X15753Y26177D01*
G01X15775Y26108D01*
G01X15775Y25994D01*
G01X15753Y25923D01*
G01X15730Y25877D01*
G01X15684Y25831D01*
G01X15613Y25808D01*
G01X15453Y25808D01*
G01X14478Y28834D02*
G01X14478Y28348D01*
G01X14800Y28834D02*
G01X14800Y28348D01*
G01X14478Y28602D02*
G01X14800Y28602D01*
G01X14952Y28834D02*
G01X15138Y28348D01*
G01X15323Y28834D02*
G01X15138Y28348D01*
G01X15521Y28834D02*
G01X15775Y28834D01*
G01X15636Y28648D01*
G01X15707Y28648D01*
G01X15753Y28625D01*
G01X15775Y28602D01*
G01X15798Y28534D01*
G01X15798Y28486D01*
G01X15775Y28417D01*
G01X15730Y28371D01*
G01X15659Y28348D01*
G01X15590Y28348D01*
G01X15521Y28371D01*
G01X15499Y28394D01*
G01X15476Y28440D01*
G01X14478Y31501D02*
G01X14478Y31015D01*
G01X14800Y31501D02*
G01X14800Y31015D01*
G01X14478Y31269D02*
G01X14800Y31269D01*
G01X14952Y31501D02*
G01X15138Y31015D01*
G01X15323Y31501D02*
G01X15138Y31015D01*
G01X15707Y31501D02*
G01X15476Y31178D01*
G01X15821Y31178D01*
G01X15707Y31501D02*
G01X15707Y31015D01*
G01X18002Y34654D02*
G01X17983Y33562D01*
G01X17983Y33562D02*
G01X18608Y33551D01*
G01X19279Y34632D02*
G01X19174Y34580D01*
G01X19068Y34478D01*
G01X19016Y34375D01*
G01X18962Y34221D01*
G01X18958Y33962D01*
G01X19006Y33803D01*
G01X19055Y33698D01*
G01X19157Y33592D01*
G01X19260Y33540D01*
G01X19469Y33536D01*
G01X19574Y33585D01*
G01X19679Y33687D01*
G01X19732Y33791D01*
G01X19788Y33947D01*
G01X19793Y34206D01*
G01X19742Y34362D01*
G01X19693Y34467D01*
G01X19591Y34573D01*
G01X19488Y34628D01*
G01X19279Y34632D01*
G01X20918Y34341D02*
G01X20866Y34447D01*
G01X20764Y34552D01*
G01X20661Y34608D01*
G01X20455Y34611D01*
G01X20350Y34560D01*
G01X20244Y34457D01*
G01X20189Y34354D01*
G01X20136Y34200D01*
G01X20131Y33941D01*
G01X20179Y33783D01*
G01X20231Y33678D01*
G01X20333Y33572D01*
G01X20436Y33519D01*
G01X20642Y33516D01*
G01X20747Y33565D01*
G01X20853Y33667D01*
G01X20908Y33770D01*
G01X20911Y33928D01*
G01X20649Y33932D02*
G01X20911Y33928D01*
G01X21240Y33142D02*
G01X22175Y33126D01*
G01X22543Y34575D02*
G01X22524Y33483D01*
G01X22524Y33483D02*
G01X23146Y33472D01*
G01X23508Y34558D02*
G01X23489Y33466D01*
G01X23508Y34558D02*
G01X24183Y34546D01*
G01X23499Y34037D02*
G01X23915Y34030D01*
G01X23489Y33466D02*
G01X24164Y33454D01*
G01X24526Y34540D02*
G01X24924Y33441D01*
G01X25357Y34526D02*
G01X24924Y33441D01*
G01X25699Y34520D02*
G01X25680Y33428D01*
G01X25699Y34520D02*
G01X26375Y34508D01*
G01X25690Y33999D02*
G01X26107Y33992D01*
G01X25680Y33428D02*
G01X26356Y33416D01*
G01X26718Y34502D02*
G01X26699Y33410D01*
G01X26699Y33410D02*
G01X27324Y33399D01*
G01X8763Y30363D02*
G01X8763Y29273D01*
G01X8763Y29273D02*
G01X9385Y29273D01*
G01X9728Y30363D02*
G01X9728Y29273D01*
G01X9728Y30363D02*
G01X10403Y30363D01*
G01X9728Y29845D02*
G01X10144Y29845D01*
G01X9728Y29273D02*
G01X10403Y29273D01*
G01X10746Y30363D02*
G01X10746Y29273D01*
G01X10746Y30363D02*
G01X11112Y30363D01*
G01X11267Y30312D01*
G01X11371Y30208D01*
G01X11422Y30104D01*
G01X11475Y29946D01*
G01X11475Y29687D01*
G01X11422Y29532D01*
G01X11371Y29428D01*
G01X11267Y29324D01*
G01X11112Y29273D01*
G01X10746Y29273D01*
G01X11049Y76210D02*
G01X11049Y75120D01*
G01X11049Y76210D02*
G01X11516Y76210D01*
G01X11671Y76159D01*
G01X11724Y76106D01*
G01X11775Y76001D01*
G01X11775Y75846D01*
G01X11724Y75742D01*
G01X11671Y75692D01*
G01X11516Y75638D01*
G01X11049Y75638D01*
G01X12534Y76210D02*
G01X12118Y75120D01*
G01X12534Y76210D02*
G01X12951Y75120D01*
G01X12275Y75483D02*
G01X12793Y75483D01*
G01X13294Y76210D02*
G01X13294Y75120D01*
G01X13294Y76210D02*
G01X13761Y76210D01*
G01X13916Y76159D01*
G01X13970Y76106D01*
G01X14020Y76001D01*
G01X14020Y75897D01*
G01X13970Y75793D01*
G01X13916Y75742D01*
G01X13761Y75692D01*
G01X13294Y75692D01*
G01X13657Y75692D02*
G01X14020Y75120D01*
G01X14726Y76210D02*
G01X14726Y75120D01*
G01X14363Y76210D02*
G01X15090Y76210D01*
G01X15433Y76210D02*
G01X15433Y75120D01*
G01X16555Y75951D02*
G01X16504Y76055D01*
G01X16400Y76159D01*
G01X16296Y76210D01*
G01X16088Y76210D01*
G01X15984Y76159D01*
G01X15880Y76055D01*
G01X15829Y75951D01*
G01X15775Y75793D01*
G01X15775Y75534D01*
G01X15829Y75379D01*
G01X15880Y75275D01*
G01X15984Y75171D01*
G01X16088Y75120D01*
G01X16296Y75120D01*
G01X16400Y75171D01*
G01X16504Y75275D01*
G01X16555Y75379D01*
G01X16898Y76210D02*
G01X16898Y75120D01*
G01X16898Y75120D02*
G01X17523Y75120D01*
G01X17866Y76210D02*
G01X17866Y75120D01*
G01X17866Y76210D02*
G01X18542Y76210D01*
G01X17866Y75692D02*
G01X18280Y75692D01*
G01X17866Y75120D02*
G01X18542Y75120D01*
G01X18884Y74754D02*
G01X19819Y74754D01*
G01X20162Y76210D02*
G01X20162Y75120D01*
G01X20162Y76210D02*
G01X20629Y76210D01*
G01X20784Y76159D01*
G01X20838Y76106D01*
G01X20888Y76001D01*
G01X20888Y75846D01*
G01X20838Y75742D01*
G01X20784Y75692D01*
G01X20629Y75638D01*
G01X20162Y75638D01*
G01X21231Y76210D02*
G01X21231Y75120D01*
G01X21958Y76210D02*
G01X21958Y75120D01*
G01X21231Y75692D02*
G01X21958Y75692D01*
G01X22613Y76210D02*
G01X22509Y76159D01*
G01X22405Y76055D01*
G01X22354Y75951D01*
G01X22301Y75793D01*
G01X22301Y75534D01*
G01X22354Y75379D01*
G01X22405Y75275D01*
G01X22509Y75171D01*
G01X22613Y75120D01*
G01X22821Y75120D01*
G01X22926Y75171D01*
G01X23030Y75275D01*
G01X23080Y75379D01*
G01X23134Y75534D01*
G01X23134Y75793D01*
G01X23080Y75951D01*
G01X23030Y76055D01*
G01X22926Y76159D01*
G01X22821Y76210D01*
G01X22613Y76210D01*
G01X23840Y76210D02*
G01X23840Y75120D01*
G01X23477Y76210D02*
G01X24203Y76210D01*
G01X24858Y76210D02*
G01X24754Y76159D01*
G01X24650Y76055D01*
G01X24599Y75951D01*
G01X24546Y75793D01*
G01X24546Y75534D01*
G01X24599Y75379D01*
G01X24650Y75275D01*
G01X24754Y75171D01*
G01X24858Y75120D01*
G01X25067Y75120D01*
G01X25171Y75171D01*
G01X25273Y75275D01*
G01X25326Y75379D01*
G01X25377Y75534D01*
G01X25377Y75793D01*
G01X25326Y75951D01*
G01X25273Y76055D01*
G01X25171Y76159D01*
G01X25067Y76210D01*
G01X24858Y76210D01*
G01X25720Y76210D02*
G01X25720Y75120D01*
G01X25720Y76210D02*
G01X26449Y75120D01*
G01X26449Y76210D02*
G01X26449Y75120D01*
G01X31267Y43098D02*
G01X31267Y42128D01*
G01X31267Y43098D02*
G01X31589Y43098D01*
G01X31729Y43053D01*
G01X31821Y42961D01*
G01X31866Y42867D01*
G01X31915Y42730D01*
G01X31915Y42499D01*
G01X31866Y42359D01*
G01X31821Y42268D01*
G01X31729Y42176D01*
G01X31589Y42128D01*
G01X31267Y42128D01*
G01X32496Y43098D02*
G01X32357Y43053D01*
G01X32265Y42913D01*
G01X32219Y42684D01*
G01X32219Y42545D01*
G01X32265Y42313D01*
G01X32357Y42176D01*
G01X32496Y42128D01*
G01X32588Y42128D01*
G01X32727Y42176D01*
G01X32819Y42313D01*
G01X32865Y42545D01*
G01X32865Y42684D01*
G01X32819Y42913D01*
G01X32727Y43053D01*
G01X32588Y43098D01*
G01X32496Y43098D01*
G01X6032Y43098D02*
G01X5664Y42128D01*
G01X6032Y43098D02*
G01X6403Y42128D01*
G01X5803Y42453D02*
G01X6263Y42453D01*
G01X6985Y43098D02*
G01X6845Y43053D01*
G01X6753Y42913D01*
G01X6708Y42684D01*
G01X6708Y42545D01*
G01X6753Y42313D01*
G01X6845Y42176D01*
G01X6985Y42128D01*
G01X7076Y42128D01*
G01X7216Y42176D01*
G01X7307Y42313D01*
G01X7353Y42545D01*
G01X7353Y42684D01*
G01X7307Y42913D01*
G01X7216Y43053D01*
G01X7076Y43098D01*
G01X6985Y43098D01*
G54D20*
G01X4836Y71010D02*
G01X5186Y70091D01*
G01X5537Y71010D02*
G01X5186Y70091D01*
G01X5826Y71010D02*
G01X5826Y70091D01*
G01X6116Y71010D02*
G01X6116Y70091D01*
G01X6116Y71010D02*
G01X6731Y70091D01*
G01X6731Y71010D02*
G01X6731Y70091D01*
G01X31407Y71010D02*
G01X31889Y71010D01*
G01X31625Y70660D01*
G01X31757Y70660D01*
G01X31843Y70617D01*
G01X31889Y70573D01*
G01X31932Y70441D01*
G01X31932Y70352D01*
G01X31889Y70220D01*
G01X31800Y70134D01*
G01X31668Y70091D01*
G01X31536Y70091D01*
G01X31407Y70134D01*
G01X31361Y70177D01*
G01X31318Y70266D01*
G01X32222Y71010D02*
G01X32572Y70091D01*
G01X32923Y71010D02*
G01X32572Y70091D01*
G01X33301Y71010D02*
G01X33784Y71010D01*
G01X33520Y70660D01*
G01X33652Y70660D01*
G01X33738Y70617D01*
G01X33784Y70573D01*
G01X33827Y70441D01*
G01X33827Y70352D01*
G01X33784Y70220D01*
G01X33695Y70134D01*
G01X33563Y70091D01*
G01X33434Y70091D01*
G01X33301Y70134D01*
G01X33256Y70177D01*
G01X33213Y70266D01*
G54D19*
G01X31318Y68498D02*
G01X31318Y67528D01*
G01X31318Y68498D02*
G01X31734Y68498D01*
G01X31871Y68453D01*
G01X31917Y68407D01*
G01X31965Y68313D01*
G01X31965Y68221D01*
G01X31917Y68130D01*
G01X31871Y68084D01*
G01X31734Y68036D01*
G01X31318Y68036D01*
G01X31640Y68036D02*
G01X31965Y67528D01*
G01X32915Y68361D02*
G01X32824Y68453D01*
G01X32684Y68498D01*
G01X32499Y68498D01*
G01X32362Y68453D01*
G01X32270Y68361D01*
G01X32270Y68267D01*
G01X32316Y68176D01*
G01X32362Y68130D01*
G01X32453Y68084D01*
G01X32730Y67990D01*
G01X32824Y67945D01*
G01X32870Y67899D01*
G01X32915Y67805D01*
G01X32915Y67668D01*
G01X32824Y67576D01*
G01X32684Y67528D01*
G01X32499Y67528D01*
G01X32362Y67576D01*
G01X32270Y67668D01*
G01X33543Y68498D02*
G01X33543Y67528D01*
G01X33220Y68498D02*
G01X33868Y68498D01*
G01X31318Y65958D02*
G01X31686Y64988D01*
G01X32057Y65958D02*
G01X31686Y64988D01*
G01X32362Y65958D02*
G01X32362Y64988D01*
G01X32362Y65958D02*
G01X32778Y65958D01*
G01X32915Y65913D01*
G01X32961Y65867D01*
G01X33007Y65773D01*
G01X33007Y65681D01*
G01X32961Y65590D01*
G01X32915Y65544D01*
G01X32778Y65496D01*
G01X32362Y65496D02*
G01X32778Y65496D01*
G01X32915Y65450D01*
G01X32961Y65405D01*
G01X33007Y65313D01*
G01X33007Y65173D01*
G01X32961Y65082D01*
G01X32915Y65036D01*
G01X32778Y64988D01*
G01X32362Y64988D01*
G01X33637Y65958D02*
G01X33637Y64988D01*
G01X33312Y65958D02*
G01X33959Y65958D01*
G01X32011Y63187D02*
G01X31965Y63281D01*
G01X31871Y63373D01*
G01X31780Y63418D01*
G01X31595Y63418D01*
G01X31503Y63373D01*
G01X31409Y63281D01*
G01X31363Y63187D01*
G01X31318Y63050D01*
G01X31318Y62819D01*
G01X31363Y62679D01*
G01X31409Y62588D01*
G01X31503Y62496D01*
G01X31595Y62448D01*
G01X31780Y62448D01*
G01X31871Y62496D01*
G01X31965Y62588D01*
G01X32011Y62679D01*
G01X32011Y62819D01*
G01X31780Y62819D02*
G01X32011Y62819D01*
G01X32316Y63418D02*
G01X32316Y62448D01*
G01X32316Y63418D02*
G01X32961Y62448D01*
G01X32961Y63418D02*
G01X32961Y62448D01*
G01X33266Y63418D02*
G01X33266Y62448D01*
G01X33266Y63418D02*
G01X33591Y63418D01*
G01X33728Y63373D01*
G01X33820Y63281D01*
G01X33868Y63187D01*
G01X33914Y63050D01*
G01X33914Y62819D01*
G01X33868Y62679D01*
G01X33820Y62588D01*
G01X33728Y62496D01*
G01X33591Y62448D01*
G01X33266Y62448D01*
G01X31318Y60878D02*
G01X31318Y59908D01*
G01X31318Y60878D02*
G01X31640Y60878D01*
G01X31780Y60833D01*
G01X31871Y60741D01*
G01X31917Y60647D01*
G01X31965Y60510D01*
G01X31965Y60279D01*
G01X31917Y60139D01*
G01X31871Y60048D01*
G01X31780Y59956D01*
G01X31640Y59908D01*
G01X31318Y59908D01*
G01X32915Y60878D02*
G01X32453Y59908D01*
G01X32270Y60878D02*
G01X32915Y60878D01*
G01X31318Y58338D02*
G01X31318Y57368D01*
G01X31318Y58338D02*
G01X31640Y58338D01*
G01X31780Y58293D01*
G01X31871Y58201D01*
G01X31917Y58107D01*
G01X31965Y57970D01*
G01X31965Y57739D01*
G01X31917Y57599D01*
G01X31871Y57508D01*
G01X31780Y57416D01*
G01X31640Y57368D01*
G01X31318Y57368D01*
G01X32824Y58201D02*
G01X32778Y58293D01*
G01X32639Y58338D01*
G01X32547Y58338D01*
G01X32407Y58293D01*
G01X32316Y58153D01*
G01X32270Y57924D01*
G01X32270Y57693D01*
G01X32316Y57508D01*
G01X32407Y57416D01*
G01X32547Y57368D01*
G01X32593Y57368D01*
G01X32730Y57416D01*
G01X32824Y57508D01*
G01X32870Y57645D01*
G01X32870Y57693D01*
G01X32824Y57830D01*
G01X32730Y57924D01*
G01X32593Y57970D01*
G01X32547Y57970D01*
G01X32407Y57924D01*
G01X32316Y57830D01*
G01X32270Y57693D01*
G01X31318Y55798D02*
G01X31318Y54828D01*
G01X31318Y55798D02*
G01X31640Y55798D01*
G01X31780Y55753D01*
G01X31871Y55661D01*
G01X31917Y55567D01*
G01X31965Y55430D01*
G01X31965Y55199D01*
G01X31917Y55059D01*
G01X31871Y54968D01*
G01X31780Y54876D01*
G01X31640Y54828D01*
G01X31318Y54828D01*
G01X32824Y55798D02*
G01X32362Y55798D01*
G01X32316Y55384D01*
G01X32362Y55430D01*
G01X32499Y55476D01*
G01X32639Y55476D01*
G01X32778Y55430D01*
G01X32870Y55336D01*
G01X32915Y55199D01*
G01X32915Y55105D01*
G01X32870Y54968D01*
G01X32778Y54876D01*
G01X32639Y54828D01*
G01X32499Y54828D01*
G01X32362Y54876D01*
G01X32316Y54922D01*
G01X32270Y55013D01*
G01X31318Y53258D02*
G01X31318Y52288D01*
G01X31318Y53258D02*
G01X31640Y53258D01*
G01X31780Y53213D01*
G01X31871Y53121D01*
G01X31917Y53027D01*
G01X31965Y52890D01*
G01X31965Y52659D01*
G01X31917Y52519D01*
G01X31871Y52428D01*
G01X31780Y52336D01*
G01X31640Y52288D01*
G01X31318Y52288D01*
G01X32730Y53258D02*
G01X32270Y52613D01*
G01X32961Y52613D01*
G01X32730Y53258D02*
G01X32730Y52288D01*
G01X31318Y50718D02*
G01X31318Y49748D01*
G01X31318Y50718D02*
G01X31640Y50718D01*
G01X31780Y50673D01*
G01X31871Y50581D01*
G01X31917Y50487D01*
G01X31965Y50350D01*
G01X31965Y50119D01*
G01X31917Y49979D01*
G01X31871Y49888D01*
G01X31780Y49796D01*
G01X31640Y49748D01*
G01X31318Y49748D01*
G01X32362Y50718D02*
G01X32870Y50718D01*
G01X32593Y50350D01*
G01X32730Y50350D01*
G01X32824Y50304D01*
G01X32870Y50256D01*
G01X32915Y50119D01*
G01X32915Y50025D01*
G01X32870Y49888D01*
G01X32778Y49796D01*
G01X32639Y49748D01*
G01X32499Y49748D01*
G01X32362Y49796D01*
G01X32316Y49842D01*
G01X32270Y49933D01*
G01X31318Y48178D02*
G01X31318Y47208D01*
G01X31318Y48178D02*
G01X31640Y48178D01*
G01X31780Y48133D01*
G01X31871Y48041D01*
G01X31917Y47947D01*
G01X31965Y47810D01*
G01X31965Y47579D01*
G01X31917Y47439D01*
G01X31871Y47348D01*
G01X31780Y47256D01*
G01X31640Y47208D01*
G01X31318Y47208D01*
G01X32316Y47947D02*
G01X32316Y47993D01*
G01X32362Y48087D01*
G01X32407Y48133D01*
G01X32499Y48178D01*
G01X32684Y48178D01*
G01X32778Y48133D01*
G01X32824Y48087D01*
G01X32870Y47993D01*
G01X32870Y47901D01*
G01X32824Y47810D01*
G01X32730Y47670D01*
G01X32270Y47208D01*
G01X32915Y47208D01*
G01X31318Y45638D02*
G01X31318Y44668D01*
G01X31318Y45638D02*
G01X31640Y45638D01*
G01X31780Y45593D01*
G01X31871Y45501D01*
G01X31917Y45407D01*
G01X31965Y45270D01*
G01X31965Y45039D01*
G01X31917Y44899D01*
G01X31871Y44808D01*
G01X31780Y44716D01*
G01X31640Y44668D01*
G01X31318Y44668D01*
G01X32270Y45453D02*
G01X32362Y45501D01*
G01X32499Y45638D01*
G01X32499Y44668D01*
G01X6032Y45638D02*
G01X5664Y44668D01*
G01X6032Y45638D02*
G01X6403Y44668D01*
G01X5803Y44993D02*
G01X6263Y44993D01*
G01X6708Y45453D02*
G01X6799Y45501D01*
G01X6939Y45638D01*
G01X6939Y44668D01*
G01X6032Y48178D02*
G01X5664Y47208D01*
G01X6032Y48178D02*
G01X6403Y47208D01*
G01X5803Y47533D02*
G01X6263Y47533D01*
G01X6753Y47947D02*
G01X6753Y47993D01*
G01X6799Y48087D01*
G01X6845Y48133D01*
G01X6939Y48178D01*
G01X7124Y48178D01*
G01X7216Y48133D01*
G01X7261Y48087D01*
G01X7307Y47993D01*
G01X7307Y47901D01*
G01X7261Y47810D01*
G01X7170Y47670D01*
G01X6708Y47208D01*
G01X7353Y47208D01*
G01X6032Y50718D02*
G01X5664Y49748D01*
G01X6032Y50718D02*
G01X6403Y49748D01*
G01X5803Y50073D02*
G01X6263Y50073D01*
G01X6799Y50718D02*
G01X7307Y50718D01*
G01X7030Y50350D01*
G01X7170Y50350D01*
G01X7261Y50304D01*
G01X7307Y50256D01*
G01X7353Y50119D01*
G01X7353Y50025D01*
G01X7307Y49888D01*
G01X7216Y49796D01*
G01X7076Y49748D01*
G01X6939Y49748D01*
G01X6799Y49796D01*
G01X6753Y49842D01*
G01X6708Y49933D01*
G01X6032Y53258D02*
G01X5664Y52288D01*
G01X6032Y53258D02*
G01X6403Y52288D01*
G01X5803Y52613D02*
G01X6263Y52613D01*
G01X7170Y53258D02*
G01X6708Y52613D01*
G01X7401Y52613D01*
G01X7170Y53258D02*
G01X7170Y52288D01*
G01X6032Y55798D02*
G01X5664Y54828D01*
G01X6032Y55798D02*
G01X6403Y54828D01*
G01X5803Y55153D02*
G01X6263Y55153D01*
G01X7261Y55798D02*
G01X6799Y55798D01*
G01X6753Y55384D01*
G01X6799Y55430D01*
G01X6939Y55476D01*
G01X7076Y55476D01*
G01X7216Y55430D01*
G01X7307Y55336D01*
G01X7353Y55199D01*
G01X7353Y55105D01*
G01X7307Y54968D01*
G01X7216Y54876D01*
G01X7076Y54828D01*
G01X6939Y54828D01*
G01X6799Y54876D01*
G01X6753Y54922D01*
G01X6708Y55013D01*
G01X4749Y58338D02*
G01X4749Y57368D01*
G01X4749Y58338D02*
G01X5072Y58338D01*
G01X5212Y58293D01*
G01X5303Y58201D01*
G01X5349Y58107D01*
G01X5397Y57970D01*
G01X5397Y57739D01*
G01X5349Y57599D01*
G01X5303Y57508D01*
G01X5212Y57416D01*
G01X5072Y57368D01*
G01X4749Y57368D01*
G01X6070Y58338D02*
G01X5702Y57368D01*
G01X6070Y58338D02*
G01X6438Y57368D01*
G01X5839Y57693D02*
G01X6301Y57693D01*
G01X7437Y58107D02*
G01X7391Y58201D01*
G01X7299Y58293D01*
G01X7205Y58338D01*
G01X7023Y58338D01*
G01X6929Y58293D01*
G01X6837Y58201D01*
G01X6791Y58107D01*
G01X6743Y57970D01*
G01X6743Y57739D01*
G01X6791Y57599D01*
G01X6837Y57508D01*
G01X6929Y57416D01*
G01X7023Y57368D01*
G01X7205Y57368D01*
G01X7299Y57416D01*
G01X7391Y57508D01*
G01X7437Y57599D01*
G01X4749Y60878D02*
G01X4980Y59908D01*
G01X5212Y60878D02*
G01X4980Y59908D01*
G01X5212Y60878D02*
G01X5443Y59908D01*
G01X5674Y60878D02*
G01X5443Y59908D01*
G01X5979Y60878D02*
G01X5979Y59908D01*
G01X6624Y60878D02*
G01X5979Y60233D01*
G01X6210Y60464D02*
G01X6624Y59908D01*
G01X6929Y60878D02*
G01X6929Y59908D01*
G01X6929Y60878D02*
G01X7345Y60878D01*
G01X7482Y60833D01*
G01X7531Y60787D01*
G01X7576Y60693D01*
G01X7576Y60556D01*
G01X7531Y60464D01*
G01X7482Y60416D01*
G01X7345Y60370D01*
G01X6929Y60370D01*
G01X5664Y63418D02*
G01X5664Y62448D01*
G01X5664Y63418D02*
G01X6080Y63418D01*
G01X6217Y63373D01*
G01X6263Y63327D01*
G01X6311Y63233D01*
G01X6311Y63141D01*
G01X6263Y63050D01*
G01X6217Y63004D01*
G01X6080Y62956D01*
G01X5664Y62956D01*
G01X5986Y62956D02*
G01X6311Y62448D01*
G01X6616Y63418D02*
G01X7261Y62448D01*
G01X7261Y63418D02*
G01X6616Y62448D01*
G01X5986Y65958D02*
G01X5986Y64988D01*
G01X5664Y65958D02*
G01X6311Y65958D01*
G01X6616Y65958D02*
G01X7261Y64988D01*
G01X7261Y65958D02*
G01X6616Y64988D01*
G01X5443Y68267D02*
G01X5397Y68361D01*
G01X5303Y68453D01*
G01X5212Y68498D01*
G01X5026Y68498D01*
G01X4935Y68453D01*
G01X4841Y68361D01*
G01X4795Y68267D01*
G01X4749Y68130D01*
G01X4749Y67899D01*
G01X4795Y67759D01*
G01X4841Y67668D01*
G01X4935Y67576D01*
G01X5026Y67528D01*
G01X5212Y67528D01*
G01X5303Y67576D01*
G01X5397Y67668D01*
G01X5443Y67759D01*
G01X5443Y67899D01*
G01X5212Y67899D02*
G01X5443Y67899D01*
G01X5748Y68498D02*
G01X5748Y67528D01*
G01X5748Y68498D02*
G01X6393Y67528D01*
G01X6393Y68498D02*
G01X6393Y67528D01*
G01X6697Y68498D02*
G01X6697Y67528D01*
G01X6697Y68498D02*
G01X7023Y68498D01*
G01X7160Y68453D01*
G01X7251Y68361D01*
G01X7299Y68267D01*
G01X7345Y68130D01*
G01X7345Y67899D01*
G01X7299Y67759D01*
G01X7251Y67668D01*
G01X7160Y67576D01*
G01X7023Y67528D01*
G01X6697Y67528D01*

%LPD*%
G36*
G01X7747Y25908D02*
G01X7239Y25908D01*
G01X7239Y23622D01*
G01X7747Y23622D01*
G01X7747Y25908D01*
G37*
M00*
M02*
