G04 Layer: BottomLayer*
G04 EasyEDA v6.3.53, 2020-06-18T19:39:47--4:00*
G04 e7e3e9cc35ab4c03949e4311758ff5c7,7c2c677999ea4ec384e77b3a21fa14ba,10*
G04 Gerber Generator version 0.2*
G04 Scale: 100 percent, Rotated: No, Reflected: No *
G04 Dimensions in millimeters *
G04 leading zeros omitted , absolute positions ,3 integer and 3 decimal *
%FSLAX33Y33*%
%MOMM*%
G90*
G71D02*

%ADD10C,0.254000*%
%ADD12C,1.524000*%
%ADD13C,1.879600*%
%ADD14C,1.905000*%
%ADD15C,1.507998*%

%LPD*%
G54D10*
G01X27940Y26035D02*
G01X33020Y26162D01*
G01X33020Y34798D01*
G01X4622Y34772D01*
G01X28067Y70485D02*
G01X36322Y70485D01*
G01X36576Y40513D01*
G01X36703Y23241D01*
G01X27940Y23495D01*
G01X10287Y70485D02*
G01X2286Y70485D01*
G01X2286Y6985D01*
G01X4953Y6985D01*
G01X10264Y31369D02*
G01X10160Y31264D01*
G01X10160Y27305D01*
G01X10541Y31369D02*
G01X14224Y31369D01*
G01X14351Y25781D01*
G01X17526Y25781D01*
G01X17780Y26035D01*
G01X10541Y31369D02*
G01X4673Y31369D01*
G01X10160Y22225D02*
G01X10160Y17270D01*
G01X10033Y10160D01*
G01X2280Y10154D01*
G01X4953Y14478D02*
G01X4064Y68072D01*
G01X10287Y67945D01*
G01X10160Y17526D02*
G01X14224Y17526D01*
G01X14351Y23368D01*
G01X17780Y23495D01*
G54D12*
G01X10287Y70485D03*
G01X10287Y67945D03*
G01X10287Y65405D03*
G01X10287Y62865D03*
G01X10287Y60325D03*
G01X10287Y57785D03*
G01X10287Y55245D03*
G01X10287Y52705D03*
G01X10287Y50165D03*
G01X10287Y47625D03*
G01X10287Y45085D03*
G01X10287Y42545D03*
G01X10160Y27305D03*
G01X10160Y24765D03*
G01X10160Y22225D03*
G01X4953Y14478D03*
G01X4953Y6985D03*
G01X17780Y18415D03*
G01X17780Y20955D03*
G01X17780Y23495D03*
G01X17780Y26035D03*
G01X17780Y28575D03*
G01X17780Y31115D03*
G01X27940Y28575D03*
G01X27940Y26035D03*
G01X27940Y23495D03*
G01X27940Y20955D03*
G01X27940Y18415D03*
G01X28067Y42545D03*
G01X28067Y45085D03*
G01X28067Y47625D03*
G01X28067Y50165D03*
G01X28067Y52705D03*
G01X28067Y55245D03*
G01X28067Y57785D03*
G01X28067Y60325D03*
G01X28067Y62865D03*
G01X28067Y65405D03*
G01X28067Y67945D03*
G01X28067Y70485D03*
G01X27940Y31115D03*
G54D13*
G01X27940Y18415D03*
G01X27940Y20955D03*
G01X27940Y23495D03*
G01X27940Y26035D03*
G01X27940Y28575D03*
G01X27940Y31115D03*
G01X17780Y31115D03*
G01X17780Y28575D03*
G01X17780Y26035D03*
G01X17780Y23495D03*
G01X17780Y20955D03*
G01X17780Y18415D03*
G54D14*
G01X28067Y70485D03*
G01X28067Y67945D03*
G01X28067Y65405D03*
G01X28067Y62865D03*
G01X28067Y60325D03*
G01X28067Y57785D03*
G01X28067Y55245D03*
G01X28067Y52705D03*
G01X28067Y50165D03*
G01X28067Y47625D03*
G01X28067Y45085D03*
G01X28067Y42545D03*
G01X10287Y42545D03*
G01X10287Y45085D03*
G01X10287Y47625D03*
G01X10287Y50165D03*
G01X10287Y52705D03*
G01X10287Y55245D03*
G01X10287Y57785D03*
G01X10287Y60325D03*
G01X10287Y62865D03*
G01X10287Y65405D03*
G01X10287Y67945D03*
G01X10287Y70485D03*
G54D15*
G01X9406Y22225D02*
G01X10913Y22225D01*
G01X9406Y24765D02*
G01X10913Y24765D01*
G01X9406Y27305D02*
G01X10913Y27305D01*
M00*
M02*
