G04 Layer: TopLayer*
G04 EasyEDA v6.3.53, 2020-06-18T19:39:47--4:00*
G04 e7e3e9cc35ab4c03949e4311758ff5c7,7c2c677999ea4ec384e77b3a21fa14ba,10*
G04 Gerber Generator version 0.2*
G04 Scale: 100 percent, Rotated: No, Reflected: No *
G04 Dimensions in millimeters *
G04 leading zeros omitted , absolute positions ,3 integer and 3 decimal *
%FSLAX33Y33*%
%MOMM*%
G90*
G71D02*

%ADD10C,0.254000*%
%ADD12C,1.524000*%
%ADD13C,1.879600*%
%ADD14C,1.905000*%
%ADD15C,1.507998*%

%LPD*%
G54D10*
G01X28067Y50165D02*
G01X34290Y50165D01*
G01X34671Y30988D01*
G01X27940Y31115D01*
G01X27852Y31202D01*
G01X27828Y31202D01*
G01X17780Y31115D02*
G01X14605Y27940D01*
G01X14605Y24765D01*
G01X10160Y24765D01*
G36*
G01X28370Y66228D02*
G01X30300Y66232D01*
G01X30303Y64581D01*
G01X28373Y64577D01*
G01X28370Y66228D01*
G37*
G36*
G01X28370Y63688D02*
G01X30300Y63692D01*
G01X30303Y62041D01*
G01X28373Y62037D01*
G01X28370Y63688D01*
G37*
G36*
G01X28370Y61148D02*
G01X30300Y61152D01*
G01X30303Y59501D01*
G01X28373Y59497D01*
G01X28370Y61148D01*
G37*
G36*
G01X28370Y58608D02*
G01X30300Y58612D01*
G01X30303Y56961D01*
G01X28373Y56957D01*
G01X28370Y58608D01*
G37*
G36*
G01X28370Y56068D02*
G01X30300Y56072D01*
G01X30303Y54421D01*
G01X28373Y54417D01*
G01X28370Y56068D01*
G37*
G36*
G01X28370Y53528D02*
G01X30300Y53532D01*
G01X30303Y51881D01*
G01X28373Y51877D01*
G01X28370Y53528D01*
G37*
G36*
G01X28370Y50988D02*
G01X30300Y50992D01*
G01X30303Y49341D01*
G01X28373Y49337D01*
G01X28370Y50988D01*
G37*
G36*
G01X28370Y48448D02*
G01X30300Y48452D01*
G01X30303Y46801D01*
G01X28373Y46797D01*
G01X28370Y48448D01*
G37*
G36*
G01X28370Y45908D02*
G01X30300Y45912D01*
G01X30303Y44261D01*
G01X28373Y44257D01*
G01X28370Y45908D01*
G37*
G36*
G01X28370Y43368D02*
G01X30300Y43372D01*
G01X30303Y41721D01*
G01X28373Y41717D01*
G01X28370Y43368D01*
G37*
G36*
G01X8050Y61148D02*
G01X9980Y61152D01*
G01X9983Y59501D01*
G01X8053Y59497D01*
G01X8050Y61148D01*
G37*
G36*
G01X8050Y71308D02*
G01X9980Y71312D01*
G01X9983Y69661D01*
G01X8053Y69657D01*
G01X8050Y71308D01*
G37*
G36*
G01X8050Y66228D02*
G01X9980Y66232D01*
G01X9983Y64581D01*
G01X8053Y64577D01*
G01X8050Y66228D01*
G37*
G36*
G01X8050Y63688D02*
G01X9980Y63692D01*
G01X9983Y62041D01*
G01X8053Y62037D01*
G01X8050Y63688D01*
G37*
G36*
G01X8050Y68768D02*
G01X9980Y68772D01*
G01X9983Y67121D01*
G01X8053Y67117D01*
G01X8050Y68768D01*
G37*
G36*
G01X8050Y58608D02*
G01X9980Y58612D01*
G01X9983Y56961D01*
G01X8053Y56957D01*
G01X8050Y58608D01*
G37*
G36*
G01X8050Y56068D02*
G01X9980Y56072D01*
G01X9983Y54421D01*
G01X8053Y54417D01*
G01X8050Y56068D01*
G37*
G36*
G01X8050Y53528D02*
G01X9980Y53532D01*
G01X9983Y51881D01*
G01X8053Y51877D01*
G01X8050Y53528D01*
G37*
G36*
G01X8050Y50988D02*
G01X9980Y50992D01*
G01X9983Y49341D01*
G01X8053Y49337D01*
G01X8050Y50988D01*
G37*
G36*
G01X8050Y48448D02*
G01X9980Y48452D01*
G01X9983Y46801D01*
G01X8053Y46797D01*
G01X8050Y48448D01*
G37*
G36*
G01X8050Y45908D02*
G01X9980Y45912D01*
G01X9983Y44261D01*
G01X8053Y44257D01*
G01X8050Y45908D01*
G37*
G36*
G01X8050Y43368D02*
G01X9980Y43372D01*
G01X9983Y41721D01*
G01X8053Y41717D01*
G01X8050Y43368D01*
G37*
G36*
G01X28370Y68768D02*
G01X30300Y68772D01*
G01X30303Y67121D01*
G01X28373Y67117D01*
G01X28370Y68768D01*
G37*
G36*
G01X28370Y71308D02*
G01X30300Y71312D01*
G01X30303Y69661D01*
G01X28373Y69657D01*
G01X28370Y71308D01*
G37*
G54D12*
G01X10287Y70485D03*
G01X10287Y67945D03*
G01X10287Y65405D03*
G01X10287Y62865D03*
G01X10287Y60325D03*
G01X10287Y57785D03*
G01X10287Y55245D03*
G01X10287Y52705D03*
G01X10287Y50165D03*
G01X10287Y47625D03*
G01X10287Y45085D03*
G01X10287Y42545D03*
G01X10160Y27305D03*
G01X10160Y24765D03*
G01X10160Y22225D03*
G01X4953Y14478D03*
G01X4953Y6985D03*
G01X17780Y18415D03*
G01X17780Y20955D03*
G01X17780Y23495D03*
G01X17780Y26035D03*
G01X17780Y28575D03*
G01X17780Y31115D03*
G01X27940Y28575D03*
G01X27940Y26035D03*
G01X27940Y23495D03*
G01X27940Y20955D03*
G01X27940Y18415D03*
G01X28067Y42545D03*
G01X28067Y45085D03*
G01X28067Y47625D03*
G01X28067Y50165D03*
G01X28067Y52705D03*
G01X28067Y55245D03*
G01X28067Y57785D03*
G01X28067Y60325D03*
G01X28067Y62865D03*
G01X28067Y65405D03*
G01X28067Y67945D03*
G01X28067Y70485D03*
G01X27940Y31115D03*
G54D13*
G01X27940Y18415D03*
G01X27940Y20955D03*
G01X27940Y23495D03*
G01X27940Y26035D03*
G01X27940Y28575D03*
G01X27940Y31115D03*
G01X17780Y31115D03*
G01X17780Y28575D03*
G01X17780Y26035D03*
G01X17780Y23495D03*
G01X17780Y20955D03*
G01X17780Y18415D03*
G54D14*
G01X28067Y70485D03*
G01X28067Y67945D03*
G01X28067Y65405D03*
G01X28067Y62865D03*
G01X28067Y60325D03*
G01X28067Y57785D03*
G01X28067Y55245D03*
G01X28067Y52705D03*
G01X28067Y50165D03*
G01X28067Y47625D03*
G01X28067Y45085D03*
G01X28067Y42545D03*
G01X10287Y42545D03*
G01X10287Y45085D03*
G01X10287Y47625D03*
G01X10287Y50165D03*
G01X10287Y52705D03*
G01X10287Y55245D03*
G01X10287Y57785D03*
G01X10287Y60325D03*
G01X10287Y62865D03*
G01X10287Y65405D03*
G01X10287Y67945D03*
G01X10287Y70485D03*
G54D15*
G01X9406Y22225D02*
G01X10913Y22225D01*
G01X9406Y24765D02*
G01X10913Y24765D01*
G01X9406Y27305D02*
G01X10913Y27305D01*
M00*
M02*
