G04 Layer: BottomSilkLayer*
G04 EasyEDA v6.3.53, 2020-06-18T19:39:47--4:00*
G04 e7e3e9cc35ab4c03949e4311758ff5c7,7c2c677999ea4ec384e77b3a21fa14ba,10*
G04 Gerber Generator version 0.2*
G04 Scale: 100 percent, Rotated: No, Reflected: No *
G04 Dimensions in millimeters *
G04 leading zeros omitted , absolute positions ,3 integer and 3 decimal *
%FSLAX33Y33*%
%MOMM*%
G90*
G71D02*

%ADD19C,0.152400*%
%ADD20C,0.144780*%

%LPD*%
G54D19*
G01X32893Y43099D02*
G01X32893Y42129D01*
G01X32893Y43099D02*
G01X32569Y43099D01*
G01X32431Y43053D01*
G01X32338Y42960D01*
G01X32292Y42868D01*
G01X32246Y42729D01*
G01X32246Y42498D01*
G01X32292Y42360D01*
G01X32338Y42267D01*
G01X32431Y42175D01*
G01X32569Y42129D01*
G01X32893Y42129D01*
G01X31664Y43099D02*
G01X31803Y43053D01*
G01X31895Y42914D01*
G01X31941Y42683D01*
G01X31941Y42545D01*
G01X31895Y42314D01*
G01X31803Y42175D01*
G01X31664Y42129D01*
G01X31572Y42129D01*
G01X31433Y42175D01*
G01X31341Y42314D01*
G01X31295Y42545D01*
G01X31295Y42683D01*
G01X31341Y42914D01*
G01X31433Y43053D01*
G01X31572Y43099D01*
G01X31664Y43099D01*
G01X6920Y43099D02*
G01X7289Y42129D01*
G01X6920Y43099D02*
G01X6550Y42129D01*
G01X7151Y42452D02*
G01X6689Y42452D01*
G01X5969Y43099D02*
G01X6107Y43053D01*
G01X6199Y42914D01*
G01X6246Y42683D01*
G01X6246Y42545D01*
G01X6199Y42314D01*
G01X6107Y42175D01*
G01X5969Y42129D01*
G01X5876Y42129D01*
G01X5738Y42175D01*
G01X5645Y42314D01*
G01X5599Y42545D01*
G01X5599Y42683D01*
G01X5645Y42914D01*
G01X5738Y43053D01*
G01X5876Y43099D01*
G01X5969Y43099D01*
G54D20*
G01X33633Y71011D02*
G01X33150Y71011D01*
G01X33413Y70660D01*
G01X33282Y70660D01*
G01X33194Y70616D01*
G01X33150Y70572D01*
G01X33106Y70441D01*
G01X33106Y70353D01*
G01X33150Y70221D01*
G01X33238Y70134D01*
G01X33370Y70090D01*
G01X33501Y70090D01*
G01X33633Y70134D01*
G01X33677Y70177D01*
G01X33721Y70265D01*
G01X32817Y71011D02*
G01X32466Y70090D01*
G01X32115Y71011D02*
G01X32466Y70090D01*
G01X31737Y71011D02*
G01X31255Y71011D01*
G01X31518Y70660D01*
G01X31387Y70660D01*
G01X31299Y70616D01*
G01X31255Y70572D01*
G01X31211Y70441D01*
G01X31211Y70353D01*
G01X31255Y70221D01*
G01X31343Y70134D01*
G01X31474Y70090D01*
G01X31606Y70090D01*
G01X31737Y70134D01*
G01X31781Y70177D01*
G01X31825Y70265D01*
G54D19*
G01X33807Y68499D02*
G01X33807Y67529D01*
G01X33807Y68499D02*
G01X33391Y68499D01*
G01X33253Y68453D01*
G01X33207Y68406D01*
G01X33160Y68314D01*
G01X33160Y68222D01*
G01X33207Y68129D01*
G01X33253Y68083D01*
G01X33391Y68037D01*
G01X33807Y68037D01*
G01X33484Y68037D02*
G01X33160Y67529D01*
G01X32209Y68360D02*
G01X32301Y68453D01*
G01X32440Y68499D01*
G01X32625Y68499D01*
G01X32763Y68453D01*
G01X32856Y68360D01*
G01X32856Y68268D01*
G01X32809Y68175D01*
G01X32763Y68129D01*
G01X32671Y68083D01*
G01X32394Y67991D01*
G01X32301Y67945D01*
G01X32255Y67898D01*
G01X32209Y67806D01*
G01X32209Y67667D01*
G01X32301Y67575D01*
G01X32440Y67529D01*
G01X32625Y67529D01*
G01X32763Y67575D01*
G01X32856Y67667D01*
G01X31581Y68499D02*
G01X31581Y67529D01*
G01X31904Y68499D02*
G01X31258Y68499D01*
G01X33807Y65959D02*
G01X33437Y64989D01*
G01X33068Y65959D02*
G01X33437Y64989D01*
G01X32763Y65959D02*
G01X32763Y64989D01*
G01X32763Y65959D02*
G01X32348Y65959D01*
G01X32209Y65913D01*
G01X32163Y65866D01*
G01X32117Y65774D01*
G01X32117Y65682D01*
G01X32163Y65589D01*
G01X32209Y65543D01*
G01X32348Y65497D01*
G01X32763Y65497D02*
G01X32348Y65497D01*
G01X32209Y65451D01*
G01X32163Y65405D01*
G01X32117Y65312D01*
G01X32117Y65174D01*
G01X32163Y65081D01*
G01X32209Y65035D01*
G01X32348Y64989D01*
G01X32763Y64989D01*
G01X31489Y65959D02*
G01X31489Y64989D01*
G01X31812Y65959D02*
G01X31165Y65959D01*
G01X33114Y63188D02*
G01X33160Y63280D01*
G01X33253Y63373D01*
G01X33345Y63419D01*
G01X33530Y63419D01*
G01X33622Y63373D01*
G01X33715Y63280D01*
G01X33761Y63188D01*
G01X33807Y63049D01*
G01X33807Y62818D01*
G01X33761Y62680D01*
G01X33715Y62587D01*
G01X33622Y62495D01*
G01X33530Y62449D01*
G01X33345Y62449D01*
G01X33253Y62495D01*
G01X33160Y62587D01*
G01X33114Y62680D01*
G01X33114Y62818D01*
G01X33345Y62818D02*
G01X33114Y62818D01*
G01X32809Y63419D02*
G01X32809Y62449D01*
G01X32809Y63419D02*
G01X32163Y62449D01*
G01X32163Y63419D02*
G01X32163Y62449D01*
G01X31858Y63419D02*
G01X31858Y62449D01*
G01X31858Y63419D02*
G01X31535Y63419D01*
G01X31396Y63373D01*
G01X31304Y63280D01*
G01X31258Y63188D01*
G01X31211Y63049D01*
G01X31211Y62818D01*
G01X31258Y62680D01*
G01X31304Y62587D01*
G01X31396Y62495D01*
G01X31535Y62449D01*
G01X31858Y62449D01*
G01X32893Y60879D02*
G01X32893Y59909D01*
G01X32893Y60879D02*
G01X32569Y60879D01*
G01X32431Y60833D01*
G01X32338Y60740D01*
G01X32292Y60648D01*
G01X32246Y60509D01*
G01X32246Y60278D01*
G01X32292Y60140D01*
G01X32338Y60047D01*
G01X32431Y59955D01*
G01X32569Y59909D01*
G01X32893Y59909D01*
G01X31295Y60879D02*
G01X31756Y59909D01*
G01X31941Y60879D02*
G01X31295Y60879D01*
G01X32893Y58339D02*
G01X32893Y57369D01*
G01X32893Y58339D02*
G01X32569Y58339D01*
G01X32431Y58293D01*
G01X32338Y58200D01*
G01X32292Y58108D01*
G01X32246Y57969D01*
G01X32246Y57738D01*
G01X32292Y57600D01*
G01X32338Y57507D01*
G01X32431Y57415D01*
G01X32569Y57369D01*
G01X32893Y57369D01*
G01X31387Y58200D02*
G01X31433Y58293D01*
G01X31572Y58339D01*
G01X31664Y58339D01*
G01X31803Y58293D01*
G01X31895Y58154D01*
G01X31941Y57923D01*
G01X31941Y57692D01*
G01X31895Y57507D01*
G01X31803Y57415D01*
G01X31664Y57369D01*
G01X31618Y57369D01*
G01X31479Y57415D01*
G01X31387Y57507D01*
G01X31341Y57646D01*
G01X31341Y57692D01*
G01X31387Y57831D01*
G01X31479Y57923D01*
G01X31618Y57969D01*
G01X31664Y57969D01*
G01X31803Y57923D01*
G01X31895Y57831D01*
G01X31941Y57692D01*
G01X32893Y55799D02*
G01X32893Y54829D01*
G01X32893Y55799D02*
G01X32569Y55799D01*
G01X32431Y55753D01*
G01X32338Y55660D01*
G01X32292Y55568D01*
G01X32246Y55429D01*
G01X32246Y55198D01*
G01X32292Y55060D01*
G01X32338Y54967D01*
G01X32431Y54875D01*
G01X32569Y54829D01*
G01X32893Y54829D01*
G01X31387Y55799D02*
G01X31849Y55799D01*
G01X31895Y55383D01*
G01X31849Y55429D01*
G01X31710Y55475D01*
G01X31572Y55475D01*
G01X31433Y55429D01*
G01X31341Y55337D01*
G01X31295Y55198D01*
G01X31295Y55106D01*
G01X31341Y54967D01*
G01X31433Y54875D01*
G01X31572Y54829D01*
G01X31710Y54829D01*
G01X31849Y54875D01*
G01X31895Y54921D01*
G01X31941Y55014D01*
G01X32893Y53259D02*
G01X32893Y52289D01*
G01X32893Y53259D02*
G01X32569Y53259D01*
G01X32431Y53213D01*
G01X32338Y53120D01*
G01X32292Y53028D01*
G01X32246Y52889D01*
G01X32246Y52658D01*
G01X32292Y52520D01*
G01X32338Y52427D01*
G01X32431Y52335D01*
G01X32569Y52289D01*
G01X32893Y52289D01*
G01X31479Y53259D02*
G01X31941Y52612D01*
G01X31248Y52612D01*
G01X31479Y53259D02*
G01X31479Y52289D01*
G01X32893Y50719D02*
G01X32893Y49749D01*
G01X32893Y50719D02*
G01X32569Y50719D01*
G01X32431Y50673D01*
G01X32338Y50580D01*
G01X32292Y50488D01*
G01X32246Y50349D01*
G01X32246Y50118D01*
G01X32292Y49980D01*
G01X32338Y49887D01*
G01X32431Y49795D01*
G01X32569Y49749D01*
G01X32893Y49749D01*
G01X31849Y50719D02*
G01X31341Y50719D01*
G01X31618Y50349D01*
G01X31479Y50349D01*
G01X31387Y50303D01*
G01X31341Y50257D01*
G01X31295Y50118D01*
G01X31295Y50026D01*
G01X31341Y49887D01*
G01X31433Y49795D01*
G01X31572Y49749D01*
G01X31710Y49749D01*
G01X31849Y49795D01*
G01X31895Y49841D01*
G01X31941Y49934D01*
G01X32893Y48179D02*
G01X32893Y47209D01*
G01X32893Y48179D02*
G01X32569Y48179D01*
G01X32431Y48133D01*
G01X32338Y48040D01*
G01X32292Y47948D01*
G01X32246Y47809D01*
G01X32246Y47578D01*
G01X32292Y47440D01*
G01X32338Y47347D01*
G01X32431Y47255D01*
G01X32569Y47209D01*
G01X32893Y47209D01*
G01X31895Y47948D02*
G01X31895Y47994D01*
G01X31849Y48086D01*
G01X31803Y48133D01*
G01X31710Y48179D01*
G01X31526Y48179D01*
G01X31433Y48133D01*
G01X31387Y48086D01*
G01X31341Y47994D01*
G01X31341Y47902D01*
G01X31387Y47809D01*
G01X31479Y47671D01*
G01X31941Y47209D01*
G01X31295Y47209D01*
G01X32893Y45639D02*
G01X32893Y44669D01*
G01X32893Y45639D02*
G01X32569Y45639D01*
G01X32431Y45593D01*
G01X32338Y45500D01*
G01X32292Y45408D01*
G01X32246Y45269D01*
G01X32246Y45038D01*
G01X32292Y44900D01*
G01X32338Y44807D01*
G01X32431Y44715D01*
G01X32569Y44669D01*
G01X32893Y44669D01*
G01X31941Y45454D02*
G01X31849Y45500D01*
G01X31710Y45639D01*
G01X31710Y44669D01*
G01X6869Y45639D02*
G01X7239Y44669D01*
G01X6869Y45639D02*
G01X6500Y44669D01*
G01X7100Y44992D02*
G01X6638Y44992D01*
G01X6195Y45454D02*
G01X6102Y45500D01*
G01X5964Y45639D01*
G01X5964Y44669D01*
G01X6869Y48179D02*
G01X7239Y47209D01*
G01X6869Y48179D02*
G01X6500Y47209D01*
G01X7100Y47532D02*
G01X6638Y47532D01*
G01X6149Y47948D02*
G01X6149Y47994D01*
G01X6102Y48086D01*
G01X6056Y48133D01*
G01X5964Y48179D01*
G01X5779Y48179D01*
G01X5687Y48133D01*
G01X5641Y48086D01*
G01X5594Y47994D01*
G01X5594Y47902D01*
G01X5641Y47809D01*
G01X5733Y47671D01*
G01X6195Y47209D01*
G01X5548Y47209D01*
G01X6869Y50719D02*
G01X7239Y49749D01*
G01X6869Y50719D02*
G01X6500Y49749D01*
G01X7100Y50072D02*
G01X6638Y50072D01*
G01X6102Y50719D02*
G01X5594Y50719D01*
G01X5872Y50349D01*
G01X5733Y50349D01*
G01X5641Y50303D01*
G01X5594Y50257D01*
G01X5548Y50118D01*
G01X5548Y50026D01*
G01X5594Y49887D01*
G01X5687Y49795D01*
G01X5825Y49749D01*
G01X5964Y49749D01*
G01X6102Y49795D01*
G01X6149Y49841D01*
G01X6195Y49934D01*
G01X6869Y53259D02*
G01X7239Y52289D01*
G01X6869Y53259D02*
G01X6500Y52289D01*
G01X7100Y52612D02*
G01X6638Y52612D01*
G01X5733Y53259D02*
G01X6195Y52612D01*
G01X5502Y52612D01*
G01X5733Y53259D02*
G01X5733Y52289D01*
G01X6869Y55799D02*
G01X7239Y54829D01*
G01X6869Y55799D02*
G01X6500Y54829D01*
G01X7100Y55152D02*
G01X6638Y55152D01*
G01X5641Y55799D02*
G01X6102Y55799D01*
G01X6149Y55383D01*
G01X6102Y55429D01*
G01X5964Y55475D01*
G01X5825Y55475D01*
G01X5687Y55429D01*
G01X5594Y55337D01*
G01X5548Y55198D01*
G01X5548Y55106D01*
G01X5594Y54967D01*
G01X5687Y54875D01*
G01X5825Y54829D01*
G01X5964Y54829D01*
G01X6102Y54875D01*
G01X6149Y54921D01*
G01X6195Y55014D01*
G01X7239Y58339D02*
G01X7239Y57369D01*
G01X7239Y58339D02*
G01X6915Y58339D01*
G01X6777Y58293D01*
G01X6684Y58200D01*
G01X6638Y58108D01*
G01X6592Y57969D01*
G01X6592Y57738D01*
G01X6638Y57600D01*
G01X6684Y57507D01*
G01X6777Y57415D01*
G01X6915Y57369D01*
G01X7239Y57369D01*
G01X5918Y58339D02*
G01X6287Y57369D01*
G01X5918Y58339D02*
G01X5548Y57369D01*
G01X6149Y57692D02*
G01X5687Y57692D01*
G01X4551Y58108D02*
G01X4597Y58200D01*
G01X4689Y58293D01*
G01X4782Y58339D01*
G01X4966Y58339D01*
G01X5059Y58293D01*
G01X5151Y58200D01*
G01X5197Y58108D01*
G01X5243Y57969D01*
G01X5243Y57738D01*
G01X5197Y57600D01*
G01X5151Y57507D01*
G01X5059Y57415D01*
G01X4966Y57369D01*
G01X4782Y57369D01*
G01X4689Y57415D01*
G01X4597Y57507D01*
G01X4551Y57600D01*
G01X7239Y60879D02*
G01X7008Y59909D01*
G01X6777Y60879D02*
G01X7008Y59909D01*
G01X6777Y60879D02*
G01X6546Y59909D01*
G01X6315Y60879D02*
G01X6546Y59909D01*
G01X6010Y60879D02*
G01X6010Y59909D01*
G01X5364Y60879D02*
G01X6010Y60232D01*
G01X5779Y60463D02*
G01X5364Y59909D01*
G01X5059Y60879D02*
G01X5059Y59909D01*
G01X5059Y60879D02*
G01X4643Y60879D01*
G01X4505Y60833D01*
G01X4458Y60786D01*
G01X4412Y60694D01*
G01X4412Y60555D01*
G01X4458Y60463D01*
G01X4505Y60417D01*
G01X4643Y60371D01*
G01X5059Y60371D01*
G01X7239Y63419D02*
G01X7239Y62449D01*
G01X7239Y63419D02*
G01X6823Y63419D01*
G01X6684Y63373D01*
G01X6638Y63326D01*
G01X6592Y63234D01*
G01X6592Y63142D01*
G01X6638Y63049D01*
G01X6684Y63003D01*
G01X6823Y62957D01*
G01X7239Y62957D01*
G01X6915Y62957D02*
G01X6592Y62449D01*
G01X6287Y63419D02*
G01X5641Y62449D01*
G01X5641Y63419D02*
G01X6287Y62449D01*
G01X6915Y65959D02*
G01X6915Y64989D01*
G01X7239Y65959D02*
G01X6592Y65959D01*
G01X6287Y65959D02*
G01X5641Y64989D01*
G01X5641Y65959D02*
G01X6287Y64989D01*
G01X6546Y68268D02*
G01X6592Y68360D01*
G01X6684Y68453D01*
G01X6777Y68499D01*
G01X6961Y68499D01*
G01X7054Y68453D01*
G01X7146Y68360D01*
G01X7192Y68268D01*
G01X7239Y68129D01*
G01X7239Y67898D01*
G01X7192Y67760D01*
G01X7146Y67667D01*
G01X7054Y67575D01*
G01X6961Y67529D01*
G01X6777Y67529D01*
G01X6684Y67575D01*
G01X6592Y67667D01*
G01X6546Y67760D01*
G01X6546Y67898D01*
G01X6777Y67898D02*
G01X6546Y67898D01*
G01X6241Y68499D02*
G01X6241Y67529D01*
G01X6241Y68499D02*
G01X5594Y67529D01*
G01X5594Y68499D02*
G01X5594Y67529D01*
G01X5290Y68499D02*
G01X5290Y67529D01*
G01X5290Y68499D02*
G01X4966Y68499D01*
G01X4828Y68453D01*
G01X4735Y68360D01*
G01X4689Y68268D01*
G01X4643Y68129D01*
G01X4643Y67898D01*
G01X4689Y67760D01*
G01X4735Y67667D01*
G01X4828Y67575D01*
G01X4966Y67529D01*
G01X5290Y67529D01*
G54D20*
G01X7239Y71011D02*
G01X6888Y70090D01*
G01X6537Y71011D02*
G01X6888Y70090D01*
G01X6247Y71011D02*
G01X6247Y70090D01*
G01X5957Y71011D02*
G01X5957Y70090D01*
G01X5957Y71011D02*
G01X5343Y70090D01*
G01X5343Y71011D02*
G01X5343Y70090D01*
M00*
M02*
