;Layer: Drill PTH
;EasyEDA v6.3.53, 2020-06-18T19:39:47--4:00
;e7e3e9cc35ab4c03949e4311758ff5c7,7c2c677999ea4ec384e77b3a21fa14ba,10
;Gerber Generator version 0.2
M48
METRIC,LZ,000.000
;Holesize 1 = 0.915 METRIC
T01C0.915
;Holesize 2 = 1.000 METRIC
T02C1.000
;Holesize 3 = 1.016 METRIC
T03C1.016
%
G05
G90
T01
X+010287Y+070485
X+010287Y+067945
X+010287Y+065405
X+010287Y+062865
X+010287Y+060325
X+010287Y+057785
X+010287Y+055245
X+010287Y+052705
X+010287Y+050165
X+010287Y+047625
X+010287Y+045085
X+010287Y+042545
X+010160Y+027305
X+010160Y+024765
X+010160Y+022225
X+004953Y+014478
X+004953Y+006985
X+017780Y+018415
X+017780Y+020955
X+017780Y+023495
X+017780Y+026035
X+017780Y+028575
X+017780Y+031115
X+027940Y+028575
X+027940Y+026035
X+027940Y+023495
X+027940Y+020955
X+027940Y+018415
X+028067Y+042545
X+028067Y+045085
X+028067Y+047625
X+028067Y+050165
X+028067Y+052705
X+028067Y+055245
X+028067Y+057785
X+028067Y+060325
X+028067Y+062865
X+028067Y+065405
X+028067Y+067945
X+028067Y+070485
X+027940Y+031115
T02
X+010159Y+022225G85X+010160Y+022225
X+010159Y+024765G85X+010160Y+024765
X+010159Y+027305G85X+010160Y+027305
T03
X+027940Y+018415
X+027940Y+020955
X+027940Y+023495
X+027940Y+026035
X+027940Y+028575
X+027940Y+031115
X+017780Y+031115
X+017780Y+028575
X+017780Y+026035
X+017780Y+023495
X+017780Y+020955
X+017780Y+018415
X+028064Y+070485G85X+028069Y+070485
X+028064Y+067945G85X+028069Y+067945
X+028064Y+065405G85X+028069Y+065405
X+028064Y+062865G85X+028069Y+062865
X+028064Y+060325G85X+028069Y+060325
X+028064Y+057785G85X+028069Y+057785
X+028064Y+055245G85X+028069Y+055245
X+028064Y+052705G85X+028069Y+052705
X+028064Y+050165G85X+028069Y+050165
X+028064Y+047625G85X+028069Y+047625
X+028064Y+045085G85X+028069Y+045085
X+028064Y+042545G85X+028069Y+042545
X+010284Y+042545G85X+010289Y+042545
X+010284Y+045085G85X+010289Y+045085
X+010284Y+047625G85X+010289Y+047625
X+010284Y+050165G85X+010289Y+050165
X+010284Y+052705G85X+010289Y+052705
X+010284Y+055245G85X+010289Y+055245
X+010284Y+057785G85X+010289Y+057785
X+010284Y+060325G85X+010289Y+060325
X+010284Y+062865G85X+010289Y+062865
X+010284Y+065405G85X+010289Y+065405
X+010284Y+067945G85X+010289Y+067945
X+010284Y+070485G85X+010289Y+070485
M30
