G04 Layer: BottomSolderMaskLayer*
G04 EasyEDA v6.3.53, 2020-06-18T19:39:47--4:00*
G04 e7e3e9cc35ab4c03949e4311758ff5c7,7c2c677999ea4ec384e77b3a21fa14ba,10*
G04 Gerber Generator version 0.2*
G04 Scale: 100 percent, Rotated: No, Reflected: No *
G04 Dimensions in millimeters *
G04 leading zeros omitted , absolute positions ,3 integer and 3 decimal *
%FSLAX33Y33*%
%MOMM*%
G90*
G71D02*

%ADD21C,1.711198*%
%ADD22C,1.727200*%
%ADD23C,2.082800*%
%ADD25C,2.108200*%

%LPD*%
G54D21*
G01X9406Y22225D02*
G01X10913Y22225D01*
G01X9406Y24765D02*
G01X10913Y24765D01*
G01X9406Y27305D02*
G01X10913Y27305D01*
G54D22*
G01X10287Y70485D03*
G01X10287Y67945D03*
G01X10287Y65405D03*
G01X10287Y62865D03*
G01X10287Y60325D03*
G01X10287Y57785D03*
G01X10287Y55245D03*
G01X10287Y52705D03*
G01X10287Y50165D03*
G01X10287Y47625D03*
G01X10287Y45085D03*
G01X10287Y42545D03*
G01X10160Y27305D03*
G01X10160Y24765D03*
G01X10160Y22225D03*
G01X4953Y14478D03*
G01X4953Y6985D03*
G01X17780Y18415D03*
G01X17780Y20955D03*
G01X17780Y23495D03*
G01X17780Y26035D03*
G01X17780Y28575D03*
G01X17780Y31115D03*
G01X27940Y28575D03*
G01X27940Y26035D03*
G01X27940Y23495D03*
G01X27940Y20955D03*
G01X27940Y18415D03*
G01X28067Y42545D03*
G01X28067Y45085D03*
G01X28067Y47625D03*
G01X28067Y50165D03*
G01X28067Y52705D03*
G01X28067Y55245D03*
G01X28067Y57785D03*
G01X28067Y60325D03*
G01X28067Y62865D03*
G01X28067Y65405D03*
G01X28067Y67945D03*
G01X28067Y70485D03*
G01X27940Y31115D03*
G54D23*
G01X27940Y18415D03*
G01X27940Y20955D03*
G01X27940Y23495D03*
G01X27940Y26035D03*
G01X27940Y28575D03*
G01X27940Y31115D03*
G01X17780Y31115D03*
G01X17780Y28575D03*
G01X17780Y26035D03*
G01X17780Y23495D03*
G01X17780Y20955D03*
G01X17780Y18415D03*
G54D25*
G01X28067Y70485D03*
G01X28067Y67945D03*
G01X28067Y65405D03*
G01X28067Y62865D03*
G01X28067Y60325D03*
G01X28067Y57785D03*
G01X28067Y55245D03*
G01X28067Y52705D03*
G01X28067Y50165D03*
G01X28067Y47625D03*
G01X28067Y45085D03*
G01X28067Y42545D03*
G01X10287Y42545D03*
G01X10287Y45085D03*
G01X10287Y47625D03*
G01X10287Y50165D03*
G01X10287Y52705D03*
G01X10287Y55245D03*
G01X10287Y57785D03*
G01X10287Y60325D03*
G01X10287Y62865D03*
G01X10287Y65405D03*
G01X10287Y67945D03*
G01X10287Y70485D03*
M00*
M02*
